<?xml version="1.0" encoding="utf-8"?>
<!-- Generator: Adobe Illustrator 21.0.0, SVG Export Plug-In . SVG Version: 6.00 Build 0)  -->
<svg version="1.1" id="图层_1" xmlns="http://www.w3.org/2000/svg" xmlns:xlink="http://www.w3.org/1999/xlink" x="0px" y="0px"
	 viewBox="0 0 1500 800" style="enable-background:new 0 0 1500 800;" xml:space="preserve">
<style type="text/css">
	.st0{enable-background:new    ;}
	.st1{fill:#1E2A6D;}
	.st2{fill:#FFFFFF;}
</style>
<title>final plan 12</title>
<g class="st0">
	<path class="st1" d="M405.3,297.4h-20.4v-4.5c0-3.2,0.2-6.3,0.5-9.5c0.3-3.1,0.6-6.2,1-9.4c2.4-14.4,7.2-27.9,14.4-40.5
		c0.8-1.6,1.6-3,2.4-4.4c0.8-1.3,1.7-2.5,2.7-3.8c0.8-1.2,1.7-1.4,2.7-0.6h0.3c1.2,0.8,1.3,1.8,0.3,3c-0.8,1.2-1.6,2.5-2.4,3.8
		c-0.8,1.3-1.6,2.7-2.4,4c-1,1.6-1.9,3.3-2.7,5c-0.8,1.7-1.6,3.5-2.4,5.3c-0.8,1.2-0.6,2,0.6,2.4c1,0.8,1.9,0.6,2.7-0.6v-0.3
		c0.8-1.6,1.6-3.2,2.4-5c0.8-1.7,1.7-3.3,2.7-5c1.6-2.8,3.2-5.3,4.8-7.5c0.8-1.2,1.7-1.4,2.7-0.6h0.3c1.4,0.8,1.5,1.8,0.3,3
		c-0.8,1-1.6,2.2-2.3,3.5c-0.7,1.3-1.5,2.5-2.3,3.8c-1,1.6-1.9,3.2-2.5,4.8c-0.7,1.6-1.5,3.2-2.3,4.8c-0.4,1.2-0.2,2,0.6,2.4
		c1.2,0.6,2.1,0.4,2.7-0.6v-0.3c0.8-1.6,1.6-3.2,2.4-4.7c0.8-1.5,1.6-3,2.4-4.6c0.8-1.2,1.5-2.3,2.3-3.5c0.7-1.1,1.4-2.3,2.3-3.5
		c0.8-1.2,1.7-1.4,2.7-0.6c1.2,0.6,1.4,1.6,0.6,3c-0.8,1-1.5,2.1-2.1,3.3c-0.6,1.2-1.3,2.3-2.1,3.3c-4.4,7.6-7.6,15.6-9.8,24
		c-2.1,8.4-3.1,17-3.1,25.8V297.4z M445.8,297.4h-20.4v-4.5c0-3.2,0.2-6.3,0.5-9.5c0.3-3.1,0.6-6.2,1-9.4
		c2.4-14.4,7.2-27.9,14.4-40.5c0.8-1.6,1.6-3,2.4-4.4c0.8-1.3,1.7-2.5,2.7-3.8c0.8-1.2,1.7-1.4,2.7-0.6h0.3c1.2,0.8,1.3,1.8,0.3,3
		c-0.8,1.2-1.6,2.5-2.4,3.8c-0.8,1.3-1.6,2.7-2.4,4c-1,1.6-1.9,3.3-2.7,5c-0.8,1.7-1.6,3.5-2.4,5.3c-0.8,1.2-0.6,2,0.6,2.4
		c1,0.8,1.9,0.6,2.7-0.6v-0.3c0.8-1.6,1.6-3.2,2.4-5c0.8-1.7,1.7-3.3,2.7-5c1.6-2.8,3.2-5.3,4.8-7.5c0.8-1.2,1.7-1.4,2.7-0.6h0.3
		c1.4,0.8,1.5,1.8,0.3,3c-0.8,1-1.6,2.2-2.3,3.5c-0.7,1.3-1.5,2.5-2.3,3.8c-1,1.6-1.9,3.2-2.5,4.8c-0.7,1.6-1.5,3.2-2.3,4.8
		c-0.4,1.2-0.2,2,0.6,2.4c1.2,0.6,2.1,0.4,2.7-0.6v-0.3c0.8-1.6,1.5-3.2,2.3-4.7c0.7-1.5,1.5-3,2.5-4.6c0.8-1.2,1.5-2.3,2.3-3.5
		c0.7-1.1,1.4-2.3,2.3-3.5c0.8-1.2,1.7-1.4,2.7-0.6c1.2,0.6,1.4,1.6,0.6,3c-0.8,1-1.5,2.1-2.1,3.3c-0.6,1.2-1.3,2.3-2.1,3.3
		c-4.4,7.6-7.6,15.6-9.8,24c-2.1,8.4-3.1,17-3.1,25.8V297.4z"/>
	<path class="st1" d="M547.5,291.1l-13.5-15c11.2-8.2,20.4-18.3,27.6-30.3c1.2-2.2,2.4-4.5,3.6-6.9c0.2-0.6,0.6-1,1.2-1.2
		c0.6-0.2,1.1-0.1,1.5,0.3h0.3c0.4,0.2,0.7,0.6,0.9,1.2c0.2,0.6,0.2,1.1,0,1.5c-1.2,2.4-2.5,4.8-3.9,7.2c-1.8,3-3.7,5.9-5.7,8.7
		h-0.3v0.3c-0.2,0.4-0.3,0.9-0.1,1.4c0.1,0.5,0.3,1,0.8,1.3c0.6,0.2,1.1,0.3,1.5,0.2c0.4-0.1,0.8-0.3,1.2-0.8c2.2-3,4.2-6.1,6-9.3
		c1.4-2.4,2.7-4.9,3.9-7.5c0.4-0.4,0.8-0.7,1.4-0.9c0.5-0.2,1-0.2,1.6,0c0.4,0.4,0.7,0.9,0.9,1.3c0.2,0.5,0.2,1,0,1.7
		c-1.4,2.6-2.8,5.2-4.2,7.8c-2,3.2-4.1,6.3-6.3,9.3v0.3c-0.2,0.4-0.3,0.9-0.2,1.4c0.1,0.5,0.3,0.9,0.8,1c0.4,0.2,0.8,0.3,1.4,0.2
		c0.5-0.1,0.8-0.2,1-0.5c2.4-3.2,4.6-6.5,6.6-9.9c1.6-2.6,3-5.3,4.2-8.1c0.4-0.6,0.8-1,1.3-1.2c0.5-0.2,1.1-0.1,1.7,0.3
		c0.6,0.2,0.9,0.6,1,1.2c0.1,0.6,0,1.1-0.1,1.5c-1.4,2.8-2.9,5.6-4.5,8.4c-3.2,5.2-6.7,10.2-10.5,15h28.2v20.1H547.5z M635.4,366.4
		h10.8v53.4h-0.3l-18.6,18.6l-14.1-14.1l12.6-12.9v-24.9h-20.1v69.6l14.4-14.4l14.4,14.4l-14.4,13.8l-14.4-13.8V487h-20.1v-24
		c-4.6,4.6-9.6,8.9-15,12.9c-2.4,1.8-4.9,3.5-7.5,5.1c-0.6,0.2-1.2,0.2-1.7,0.1c-0.5-0.1-0.9-0.4-1-0.8h-0.3
		c-0.2-0.6-0.3-1.2-0.2-1.6c0.1-0.5,0.5-0.9,1.1-1.1c2.4-1.6,4.8-3.3,7.2-5.1c3-2.2,5.9-4.5,8.7-6.9c0.4-0.2,0.6-0.5,0.6-1
		c0-0.5-0.1-0.9-0.3-1.3c-0.2-0.4-0.6-0.6-1-0.8c-0.5-0.1-1,0.1-1.3,0.5h-0.3c-2.6,2.4-5.4,4.6-8.4,6.6c-2.4,1.6-4.8,3.2-7.2,4.8
		c-0.4,0.2-0.9,0.2-1.3,0.2c-0.5-0.1-1-0.4-1.4-0.8c-0.2-0.6-0.3-1.2-0.1-1.7c0.1-0.5,0.3-0.9,0.8-1c2.4-1.6,4.7-3.1,6.9-4.5
		c2.8-2,5.5-4.2,8.1-6.6c0.4-0.2,0.6-0.5,0.8-1.1c0.1-0.5-0.1-0.9-0.5-1.3c-0.2-0.4-0.6-0.6-1-0.8c-0.5-0.1-1,0.1-1.4,0.5h-0.3
		c-2.6,2.2-5.2,4.3-7.8,6.3c-2.2,1.6-4.4,3.1-6.6,4.5c-0.4,0-0.9,0-1.4,0c-0.5,0-1-0.2-1.3-0.6c-0.4-0.6-0.5-1.1-0.3-1.7
		c0.2-0.5,0.5-0.9,0.9-1.3c2.2-1.2,4.3-2.6,6.3-4.2c10.8-8,19.6-17.8,26.4-29.4v-44.4h-20.1v39.9h-20.1v-40.2h20.1v-19.8h20.1V346
		h-20.1v-20.1h20.1v-20.1h20.1v20.1h19.8V346h-19.8v20.4h20.1H635.4z M571.2,319.9l-14.1-14.4l14.1-14.1l14.4,14.1L571.2,319.9z
		 M631.5,265.9H660v20.4h-25.2l14.1,14.1l-14.1,14.4l-14.4-14.4l14.4-14.1h-24.3L596.7,271c11.4-8.2,20.7-18.3,27.9-30.3
		c1.2-2.2,2.4-4.5,3.6-6.9c0.2-0.4,0.6-0.7,1.2-0.9c0.6-0.2,1.1-0.2,1.5,0h0.3c0.4,0.4,0.7,0.9,0.9,1.4c0.2,0.5,0.2,1,0,1.3
		c-1.2,2.4-2.5,4.8-3.9,7.2c-1.8,3-3.8,6-6,9c-0.2,0.4-0.3,0.9-0.1,1.3c0.1,0.5,0.3,1,0.8,1.4c0.4,0.2,0.8,0.3,1.3,0.1
		c0.5-0.1,0.9-0.3,1.4-0.8c2-3,4-6,6-9c1.4-2.6,2.7-5.1,3.9-7.5c0.2-0.6,0.6-1,1.2-1.2c0.6-0.2,1.2-0.2,1.8,0v0.3
		c0.4,0.2,0.7,0.6,0.9,1c0.2,0.5,0.2,1,0,1.6c-1.4,2.6-2.8,5.2-4.2,7.8c-2,3.2-4.1,6.3-6.3,9.3v0.3c-0.4,0.4-0.5,0.9-0.3,1.3
		c0.2,0.5,0.5,0.9,0.9,1.1c0.4,0.4,0.8,0.6,1.4,0.4c0.5-0.1,0.8-0.3,1-0.8c2.4-3.2,4.6-6.5,6.6-9.9c1.6-2.6,3-5.3,4.2-8.1
		c0.4-0.4,0.8-0.7,1.3-0.9c0.5-0.2,1.1-0.2,1.7,0c0.4,0.4,0.7,0.9,0.9,1.3c0.2,0.5,0.2,1,0,1.4c-1.4,3-2.9,5.8-4.5,8.4
		C638.8,256.3,635.3,261.3,631.5,265.9z"/>
	<path class="st1" d="M698.1,376.3v-40.2h-20.4V316h20.4v-20.4h19.8V316H738v20.1h-20.1v20.1l20.1-19.8l14.4,14.1l-33.9,33.9
		c1.2,14.8,5.4,28.6,12.6,41.4c1.2,2.2,2.6,4.4,4.2,6.6c0.2,0.4,0.2,0.9,0.1,1.5c-0.1,0.6-0.4,1-0.8,1.2h-0.3
		c-0.4,0.4-0.9,0.6-1.3,0.5c-0.5-0.1-1-0.5-1.4-1c-1.4-2.2-2.8-4.4-4.2-6.6c-1.8-3.2-3.4-6.4-4.8-9.6c-0.4-0.4-0.9-0.7-1.3-0.9
		c-0.5-0.2-1-0.1-1.3,0.3c-0.4,0.2-0.7,0.5-0.8,0.9c-0.1,0.4-0.1,0.9,0.1,1.5c1.4,3.2,3,6.4,4.8,9.6c1.4,2.4,2.9,4.8,4.5,7.2
		c0.2,0.4,0.2,0.9,0.2,1.5c-0.1,0.6-0.4,1-0.8,1.2v0.3c-0.6,0.2-1.2,0.3-1.7,0.2c-0.5-0.1-1-0.5-1.3-1c-1.6-2.4-3.1-4.8-4.5-7.2
		c-1.8-3.2-3.5-6.5-5.1-9.9v-0.3c-0.4-0.4-0.9-0.7-1.4-0.9c-0.5-0.2-1-0.1-1.3,0.3c-0.4,0.2-0.7,0.5-0.8,0.9
		c-0.1,0.4-0.1,0.9,0.1,1.5c1.4,3.4,3.1,6.8,5.1,10.2c1.6,2.6,3.2,5.2,4.8,7.8c0.4,0.4,0.5,0.9,0.5,1.5c-0.1,0.6-0.5,1-1,1.2v0.3
		c-0.6,0.2-1.2,0.3-1.7,0.2c-0.5-0.1-0.9-0.3-1-0.8c-1.8-2.8-3.5-5.5-5.1-8.1c-6-10.6-10.3-21.8-12.9-33.6l-14.4-14.4L698.1,376.3z
		 M717.9,295.6l14.4-14.4l14.4,14.4L732.3,310L717.9,295.6z M778.5,316v87h-20.1v-87H778.5z M818.7,403.6l-21.9,21.9l-14.4-14.1
		l16.2-16.2V316h20.1V403.6z"/>
	<path class="st1" d="M876.9,370.9l15,15L877.5,400l-29.4-29.1l14.4-14.4l3.6-3.6l-28.2-28.2l3.6-3.9l36-36c0.4-0.4,0.9-0.6,1.5-0.6
		c0.6,0,1.1,0.2,1.5,0.6c0.4,0.4,0.6,0.9,0.6,1.5c0,0.6-0.2,1.1-0.6,1.5l-11.7,11.4c-0.4,0.4-0.6,0.9-0.6,1.5c0,0.6,0.2,1.1,0.6,1.5
		c0.4,0.4,0.9,0.6,1.5,0.6s1.1-0.2,1.5-0.6l11.4-11.7c0.4-0.4,0.9-0.6,1.5-0.6s1.1,0.2,1.5,0.6c0.4,0.4,0.6,0.9,0.6,1.5
		c0,0.6-0.2,1.1-0.6,1.5l-11.7,11.7c-0.4,0.4-0.6,0.9-0.6,1.4c0,0.5,0.2,1,0.6,1.3c0.4,0.4,0.9,0.6,1.5,0.6c0.6,0,1-0.2,1.2-0.6
		l11.7-11.7c0.4-0.4,0.9-0.6,1.5-0.6s1.1,0.2,1.5,0.6c0.4,0.4,0.6,0.9,0.6,1.5c0,0.6-0.2,1.1-0.6,1.5l-25.5,25.5l15.9,16.2l12.3,12
		L876.9,370.9z M849.9,427.9l27.6-27.6l14.4,14.1L864,442.3L849.9,427.9z M1008.9,402.4c0.4,0.4,0.6,0.9,0.6,1.5
		c0,0.6-0.2,1.1-0.6,1.5c-0.4,0.4-0.9,0.6-1.5,0.6H891.9v-20.1H912v-59.4h20.4v-20.1H981v5.1v74.4h26.4c0.6,0,1.1,0.2,1.5,0.6
		c0.4,0.4,0.6,0.9,0.6,1.5c0,0.4-0.2,0.8-0.6,1.2c-0.4,0.4-0.9,0.6-1.5,0.6h-16.5c-0.6,0-1.1,0.2-1.5,0.6c-0.4,0.4-0.6,0.9-0.6,1.5
		c0,0.6,0.2,1,0.6,1.4c0.4,0.3,0.9,0.6,1.5,0.8h16.5c0.6,0,1.1,0.2,1.5,0.6c0.4,0.4,0.6,0.8,0.6,1.2c0,0.6-0.2,1.1-0.6,1.5
		c-0.4,0.4-0.9,0.6-1.5,0.6h-16.5c-0.6,0-1.1,0.2-1.5,0.6c-0.4,0.4-0.6,0.9-0.6,1.5c0,0.4,0.2,0.8,0.6,1.2c0.4,0.4,0.9,0.6,1.5,0.6
		h16.5C1008,401.8,1008.5,402,1008.9,402.4z M932.4,385.9h28.5v-15.3L946.8,385l-14.4-14.4l14.4-14.1l14.1,14.1v-28.5l-14.1,14.1
		l-14.4-14.1l14.4-14.4l14.1,14.4v-15.6h-28.5V385.9z"/>
	<path class="st1" d="M1081.8,289.9c-1.2-0.8-1.4-1.8-0.6-3c1.4-2,2.8-4.2,4.2-6.6c8.8-15.4,13.2-32,13.2-49.8v-4.2h20.1v4.5
		c0,3.2-0.1,6.4-0.3,9.5c-0.2,3.1-0.6,6.3-1.2,9.4c-1,7.2-2.8,14.2-5.3,20.9c-2.5,6.7-5.5,13.3-9.2,19.6c-1.4,2.6-3.1,5.3-5.1,8.1
		c-0.8,1.2-1.7,1.4-2.7,0.6c-1-0.6-1.2-1.6-0.6-3c1-1.2,1.8-2.4,2.5-3.8c0.7-1.3,1.4-2.6,2.3-4c2.2-3.4,4-6.8,5.4-10.2
		c0.4-1.2,0.1-2-0.9-2.4c-1-0.8-1.9-0.6-2.7,0.6v0.3c-0.8,1.6-1.6,3.3-2.4,5c-0.8,1.7-1.7,3.4-2.7,5c-1.6,2.8-3.2,5.3-4.8,7.5
		c-0.8,1.2-1.7,1.4-2.7,0.6c-1.2-0.8-1.4-1.8-0.6-3c0.8-1,1.5-2.1,2.3-3.5c0.7-1.3,1.4-2.5,2.3-3.8c1-1.6,1.9-3.2,2.7-4.8
		c0.8-1.6,1.5-3.2,2.1-4.8c0.8-1.2,0.6-2-0.6-2.4c-1-0.8-1.9-0.6-2.7,0.6v0.3c-0.8,1.6-1.6,3.2-2.3,4.7c-0.7,1.5-1.6,3.1-2.5,4.6
		c-0.8,1.2-1.5,2.4-2.1,3.5c-0.6,1.1-1.3,2.3-2.1,3.5C1084,290.3,1083,290.5,1081.8,289.9z M1139.1,226.3h20.1v4.5
		c0,3.2-0.1,6.4-0.3,9.5c-0.2,3.1-0.6,6.3-1.2,9.4c-1,7.2-2.8,14.2-5.3,20.9c-2.5,6.7-5.5,13.3-9.2,19.6c-1.4,2.6-3.1,5.3-5.1,8.1
		c-0.8,1.2-1.7,1.4-2.7,0.6c-1-0.6-1.2-1.6-0.6-3c1-1.2,1.8-2.4,2.5-3.8c0.7-1.3,1.4-2.6,2.3-4c2.2-3.4,4-6.8,5.4-10.2
		c0.4-1.2,0.1-2-0.9-2.4c-1-0.8-1.9-0.6-2.7,0.6v0.3c-0.8,1.6-1.6,3.3-2.4,5c-0.8,1.7-1.7,3.4-2.7,5c-1.6,2.8-3.2,5.3-4.8,7.5
		c-0.8,1.2-1.7,1.4-2.7,0.6c-1.2-0.8-1.4-1.8-0.6-3c0.8-1,1.5-2.1,2.3-3.5c0.7-1.3,1.4-2.5,2.3-3.8c1-1.6,1.9-3.2,2.7-4.8
		c0.8-1.6,1.5-3.2,2.1-4.8c0.8-1.2,0.6-2-0.6-2.4c-1-0.8-1.9-0.6-2.7,0.6v0.3c-0.8,1.6-1.6,3.2-2.3,4.7c-0.7,1.5-1.6,3.1-2.5,4.6
		c-0.8,1.2-1.5,2.4-2.1,3.5c-0.6,1.1-1.3,2.3-2.1,3.5c-0.8,1-1.8,1.2-3,0.6c-1.2-0.8-1.4-1.8-0.6-3c1.4-2,2.8-4.2,4.2-6.6
		c8.8-15.4,13.2-32,13.2-49.8V226.3z"/>
</g>
<title>final plan 12</title>
<g class="st0">
	<path class="st2" d="M390.8,291.4h-20.4v-4.5c0-3.2,0.2-6.3,0.5-9.5c0.3-3.1,0.6-6.2,1-9.4c2.4-14.4,7.2-27.9,14.4-40.5
		c0.8-1.6,1.6-3,2.4-4.4c0.8-1.3,1.7-2.5,2.7-3.8c0.8-1.2,1.7-1.4,2.7-0.6h0.3c1.2,0.8,1.3,1.8,0.3,3c-0.8,1.2-1.6,2.5-2.4,3.8
		c-0.8,1.3-1.6,2.7-2.4,4c-1,1.6-1.9,3.3-2.7,5c-0.8,1.7-1.6,3.5-2.4,5.3c-0.8,1.2-0.6,2,0.6,2.4c1,0.8,1.9,0.6,2.7-0.6v-0.3
		c0.8-1.6,1.6-3.2,2.4-5c0.8-1.7,1.7-3.3,2.7-5c1.6-2.8,3.2-5.3,4.8-7.5c0.8-1.2,1.7-1.4,2.7-0.6h0.3c1.4,0.8,1.5,1.8,0.3,3
		c-0.8,1-1.6,2.2-2.3,3.5c-0.7,1.3-1.5,2.5-2.3,3.8c-1,1.6-1.9,3.2-2.5,4.8c-0.7,1.6-1.5,3.2-2.3,4.8c-0.4,1.2-0.2,2,0.6,2.4
		c1.2,0.6,2.1,0.4,2.7-0.6v-0.3c0.8-1.6,1.6-3.2,2.4-4.7c0.8-1.5,1.6-3,2.4-4.6c0.8-1.2,1.5-2.3,2.3-3.5c0.7-1.1,1.4-2.3,2.3-3.5
		c0.8-1.2,1.7-1.4,2.7-0.6c1.2,0.6,1.4,1.6,0.6,3c-0.8,1-1.5,2.1-2.1,3.3c-0.6,1.2-1.3,2.3-2.1,3.3c-4.4,7.6-7.6,15.6-9.8,24
		c-2.1,8.4-3.1,17-3.1,25.8V291.4z M431.3,291.4h-20.4v-4.5c0-3.2,0.2-6.3,0.5-9.5c0.3-3.1,0.6-6.2,1-9.4
		c2.4-14.4,7.2-27.9,14.4-40.5c0.8-1.6,1.6-3,2.4-4.4c0.8-1.3,1.7-2.5,2.7-3.8c0.8-1.2,1.7-1.4,2.7-0.6h0.3c1.2,0.8,1.3,1.8,0.3,3
		c-0.8,1.2-1.6,2.5-2.4,3.8c-0.8,1.3-1.6,2.7-2.4,4c-1,1.6-1.9,3.3-2.7,5c-0.8,1.7-1.6,3.5-2.4,5.3c-0.8,1.2-0.6,2,0.6,2.4
		c1,0.8,1.9,0.6,2.7-0.6v-0.3c0.8-1.6,1.6-3.2,2.4-5c0.8-1.7,1.7-3.3,2.7-5c1.6-2.8,3.2-5.3,4.8-7.5c0.8-1.2,1.7-1.4,2.7-0.6h0.3
		c1.4,0.8,1.5,1.8,0.3,3c-0.8,1-1.6,2.2-2.3,3.5c-0.7,1.3-1.5,2.5-2.3,3.8c-1,1.6-1.9,3.2-2.5,4.8c-0.7,1.6-1.5,3.2-2.3,4.8
		c-0.4,1.2-0.2,2,0.6,2.4c1.2,0.6,2.1,0.4,2.7-0.6v-0.3c0.8-1.6,1.5-3.2,2.3-4.7c0.7-1.5,1.5-3,2.5-4.6c0.8-1.2,1.5-2.3,2.3-3.5
		c0.7-1.1,1.4-2.3,2.3-3.5c0.8-1.2,1.7-1.4,2.7-0.6c1.2,0.6,1.4,1.6,0.6,3c-0.8,1-1.5,2.1-2.1,3.3c-0.6,1.2-1.3,2.3-2.1,3.3
		c-4.4,7.6-7.6,15.6-9.8,24c-2.1,8.4-3.1,17-3.1,25.8V291.4z"/>
	<path class="st2" d="M533,285.1l-13.5-15c11.2-8.2,20.4-18.3,27.6-30.3c1.2-2.2,2.4-4.5,3.6-6.9c0.2-0.6,0.6-1,1.2-1.2
		c0.6-0.2,1.1-0.1,1.5,0.3h0.3c0.4,0.2,0.7,0.6,0.9,1.2c0.2,0.6,0.2,1.1,0,1.5c-1.2,2.4-2.5,4.8-3.9,7.2c-1.8,3-3.7,5.9-5.7,8.7
		h-0.3v0.3c-0.2,0.4-0.3,0.9-0.1,1.4c0.1,0.5,0.3,1,0.8,1.3c0.6,0.2,1.1,0.3,1.5,0.2c0.4-0.1,0.8-0.3,1.2-0.8c2.2-3,4.2-6.1,6-9.3
		c1.4-2.4,2.7-4.9,3.9-7.5c0.4-0.4,0.8-0.7,1.4-0.9c0.5-0.2,1-0.2,1.6,0c0.4,0.4,0.7,0.9,0.9,1.3c0.2,0.5,0.2,1,0,1.7
		c-1.4,2.6-2.8,5.2-4.2,7.8c-2,3.2-4.1,6.3-6.3,9.3v0.3c-0.2,0.4-0.3,0.9-0.2,1.4c0.1,0.5,0.3,0.9,0.8,1c0.4,0.2,0.8,0.3,1.4,0.2
		c0.5-0.1,0.8-0.2,1-0.5c2.4-3.2,4.6-6.5,6.6-9.9c1.6-2.6,3-5.3,4.2-8.1c0.4-0.6,0.8-1,1.3-1.2c0.5-0.2,1.1-0.1,1.7,0.3
		c0.6,0.2,0.9,0.6,1,1.2c0.1,0.6,0,1.1-0.1,1.5c-1.4,2.8-2.9,5.6-4.5,8.4c-3.2,5.2-6.7,10.2-10.5,15h28.2v20.1H533z M620.9,360.4
		h10.8v53.4h-0.3l-18.6,18.6l-14.1-14.1l12.6-12.9v-24.9h-20.1v69.6l14.4-14.4l14.4,14.4l-14.4,13.8l-14.4-13.8V481h-20.1v-24
		c-4.6,4.6-9.6,8.9-15,12.9c-2.4,1.8-4.9,3.5-7.5,5.1c-0.6,0.2-1.2,0.2-1.7,0.1c-0.5-0.1-0.9-0.4-1-0.8h-0.3
		c-0.2-0.6-0.3-1.2-0.2-1.6c0.1-0.5,0.5-0.9,1.1-1.1c2.4-1.6,4.8-3.3,7.2-5.1c3-2.2,5.9-4.5,8.7-6.9c0.4-0.2,0.6-0.5,0.6-1
		c0-0.5-0.1-0.9-0.3-1.3c-0.2-0.4-0.6-0.6-1-0.8c-0.5-0.1-1,0.1-1.3,0.5H560c-2.6,2.4-5.4,4.6-8.4,6.6c-2.4,1.6-4.8,3.2-7.2,4.8
		c-0.4,0.2-0.9,0.2-1.3,0.2c-0.5-0.1-1-0.4-1.4-0.8c-0.2-0.6-0.3-1.2-0.1-1.7c0.1-0.5,0.3-0.9,0.8-1c2.4-1.6,4.7-3.1,6.9-4.5
		c2.8-2,5.5-4.2,8.1-6.6c0.4-0.2,0.6-0.5,0.8-1.1c0.1-0.5-0.1-0.9-0.5-1.3c-0.2-0.4-0.6-0.6-1-0.8c-0.5-0.1-1,0.1-1.4,0.5h-0.3
		c-2.6,2.2-5.2,4.3-7.8,6.3c-2.2,1.6-4.4,3.1-6.6,4.5c-0.4,0-0.9,0-1.4,0c-0.5,0-1-0.2-1.3-0.6c-0.4-0.6-0.5-1.1-0.3-1.7
		c0.2-0.5,0.5-0.9,0.9-1.3c2.2-1.2,4.3-2.6,6.3-4.2c10.8-8,19.6-17.8,26.4-29.4v-44.4H551v39.9h-20.1v-40.2H551v-19.8h20.1V340H551
		v-20.1h20.1v-20.1h20.1v20.1H611V340h-19.8v20.4h20.1H620.9z M556.7,313.9l-14.1-14.4l14.1-14.1l14.4,14.1L556.7,313.9z M617,259.9
		h28.5v20.4h-25.2l14.1,14.1l-14.1,14.4l-14.4-14.4l14.4-14.1H596L582.2,265c11.4-8.2,20.7-18.3,27.9-30.3c1.2-2.2,2.4-4.5,3.6-6.9
		c0.2-0.4,0.6-0.7,1.2-0.9c0.6-0.2,1.1-0.2,1.5,0h0.3c0.4,0.4,0.7,0.9,0.9,1.4c0.2,0.5,0.2,1,0,1.3c-1.2,2.4-2.5,4.8-3.9,7.2
		c-1.8,3-3.8,6-6,9c-0.2,0.4-0.3,0.9-0.1,1.3c0.1,0.5,0.3,1,0.8,1.4c0.4,0.2,0.8,0.3,1.3,0.1c0.5-0.1,0.9-0.3,1.4-0.8c2-3,4-6,6-9
		c1.4-2.6,2.7-5.1,3.9-7.5c0.2-0.6,0.6-1,1.2-1.2c0.6-0.2,1.2-0.2,1.8,0v0.3c0.4,0.2,0.7,0.6,0.9,1c0.2,0.5,0.2,1,0,1.6
		c-1.4,2.6-2.8,5.2-4.2,7.8c-2,3.2-4.1,6.3-6.3,9.3v0.3c-0.4,0.4-0.5,0.9-0.3,1.3c0.2,0.5,0.5,0.9,0.9,1.1c0.4,0.4,0.8,0.6,1.4,0.4
		c0.5-0.1,0.8-0.3,1-0.8c2.4-3.2,4.6-6.5,6.6-9.9c1.6-2.6,3-5.3,4.2-8.1c0.4-0.4,0.8-0.7,1.3-0.9c0.5-0.2,1.1-0.2,1.7,0
		c0.4,0.4,0.7,0.9,0.9,1.3c0.2,0.5,0.2,1,0,1.4c-1.4,3-2.9,5.8-4.5,8.4C624.3,250.3,620.8,255.3,617,259.9z"/>
	<path class="st2" d="M683.6,370.3v-40.2h-20.4V310h20.4v-20.4h19.8V310h20.1v20.1h-20.1v20.1l20.1-19.8l14.4,14.1L704,378.4
		c1.2,14.8,5.4,28.6,12.6,41.4c1.2,2.2,2.6,4.4,4.2,6.6c0.2,0.4,0.2,0.9,0.1,1.5c-0.1,0.6-0.4,1-0.8,1.2h-0.3
		c-0.4,0.4-0.9,0.6-1.3,0.5c-0.5-0.1-1-0.5-1.4-1c-1.4-2.2-2.8-4.4-4.2-6.6c-1.8-3.2-3.4-6.4-4.8-9.6c-0.4-0.4-0.9-0.7-1.3-0.9
		c-0.5-0.2-1-0.1-1.3,0.3c-0.4,0.2-0.7,0.5-0.8,0.9c-0.1,0.4-0.1,0.9,0.1,1.5c1.4,3.2,3,6.4,4.8,9.6c1.4,2.4,2.9,4.8,4.5,7.2
		c0.2,0.4,0.2,0.9,0.2,1.5c-0.1,0.6-0.4,1-0.8,1.2v0.3c-0.6,0.2-1.2,0.3-1.7,0.2c-0.5-0.1-1-0.5-1.3-1c-1.6-2.4-3.1-4.8-4.5-7.2
		c-1.8-3.2-3.5-6.5-5.1-9.9v-0.3c-0.4-0.4-0.9-0.7-1.4-0.9c-0.5-0.2-1-0.1-1.3,0.3c-0.4,0.2-0.7,0.5-0.8,0.9
		c-0.1,0.4-0.1,0.9,0.1,1.5c1.4,3.4,3.1,6.8,5.1,10.2c1.6,2.6,3.2,5.2,4.8,7.8c0.4,0.4,0.5,0.9,0.5,1.5c-0.1,0.6-0.5,1-1,1.2v0.3
		c-0.6,0.2-1.2,0.3-1.7,0.2c-0.5-0.1-0.9-0.3-1-0.8c-1.8-2.8-3.5-5.5-5.1-8.1c-6-10.6-10.3-21.8-12.9-33.6l-14.4-14.4L683.6,370.3z
		 M703.4,289.6l14.4-14.4l14.4,14.4L717.8,304L703.4,289.6z M764,310v87h-20.1v-87H764z M804.2,397.6l-21.9,21.9l-14.4-14.1
		l16.2-16.2V310h20.1V397.6z"/>
	<path class="st2" d="M862.4,364.9l15,15L863,394l-29.4-29.1l14.4-14.4l3.6-3.6l-28.2-28.2l3.6-3.9l36-36c0.4-0.4,0.9-0.6,1.5-0.6
		c0.6,0,1.1,0.2,1.5,0.6c0.4,0.4,0.6,0.9,0.6,1.5c0,0.6-0.2,1.1-0.6,1.5l-11.7,11.4c-0.4,0.4-0.6,0.9-0.6,1.5c0,0.6,0.2,1.1,0.6,1.5
		c0.4,0.4,0.9,0.6,1.5,0.6s1.1-0.2,1.5-0.6l11.4-11.7c0.4-0.4,0.9-0.6,1.5-0.6s1.1,0.2,1.5,0.6c0.4,0.4,0.6,0.9,0.6,1.5
		c0,0.6-0.2,1.1-0.6,1.5L860,299.2c-0.4,0.4-0.6,0.9-0.6,1.4c0,0.5,0.2,1,0.6,1.3c0.4,0.4,0.9,0.6,1.5,0.6c0.6,0,1-0.2,1.2-0.6
		l11.7-11.7c0.4-0.4,0.9-0.6,1.5-0.6s1.1,0.2,1.5,0.6c0.4,0.4,0.6,0.9,0.6,1.5c0,0.6-0.2,1.1-0.6,1.5l-25.5,25.5l15.9,16.2l12.3,12
		L862.4,364.9z M835.4,421.9l27.6-27.6l14.4,14.1l-27.9,27.9L835.4,421.9z M994.4,396.4c0.4,0.4,0.6,0.9,0.6,1.5
		c0,0.6-0.2,1.1-0.6,1.5c-0.4,0.4-0.9,0.6-1.5,0.6H877.4v-20.1h20.1v-59.4h20.4v-20.1h48.6v5.1v74.4h26.4c0.6,0,1.1,0.2,1.5,0.6
		c0.4,0.4,0.6,0.9,0.6,1.5c0,0.4-0.2,0.8-0.6,1.2c-0.4,0.4-0.9,0.6-1.5,0.6h-16.5c-0.6,0-1.1,0.2-1.5,0.6c-0.4,0.4-0.6,0.9-0.6,1.5
		c0,0.6,0.2,1,0.6,1.4c0.4,0.3,0.9,0.6,1.5,0.8h16.5c0.6,0,1.1,0.2,1.5,0.6c0.4,0.4,0.6,0.8,0.6,1.2c0,0.6-0.2,1.1-0.6,1.5
		c-0.4,0.4-0.9,0.6-1.5,0.6h-16.5c-0.6,0-1.1,0.2-1.5,0.6c-0.4,0.4-0.6,0.9-0.6,1.5c0,0.4,0.2,0.8,0.6,1.2c0.4,0.4,0.9,0.6,1.5,0.6
		h16.5C993.5,395.8,994,396,994.4,396.4z M917.9,379.9h28.5v-15.3L932.3,379l-14.4-14.4l14.4-14.1l14.1,14.1v-28.5l-14.1,14.1
		l-14.4-14.1l14.4-14.4l14.1,14.4v-15.6h-28.5V379.9z"/>
	<path class="st2" d="M1067.3,283.9c-1.2-0.8-1.4-1.8-0.6-3c1.4-2,2.8-4.2,4.2-6.6c8.8-15.4,13.2-32,13.2-49.8v-4.2h20.1v4.5
		c0,3.2-0.1,6.4-0.3,9.5c-0.2,3.1-0.6,6.3-1.2,9.4c-1,7.2-2.8,14.2-5.3,20.9c-2.5,6.7-5.5,13.3-9.2,19.6c-1.4,2.6-3.1,5.3-5.1,8.1
		c-0.8,1.2-1.7,1.4-2.7,0.6c-1-0.6-1.2-1.6-0.6-3c1-1.2,1.8-2.4,2.5-3.8c0.7-1.3,1.4-2.6,2.3-4c2.2-3.4,4-6.8,5.4-10.2
		c0.4-1.2,0.1-2-0.9-2.4c-1-0.8-1.9-0.6-2.7,0.6v0.3c-0.8,1.6-1.6,3.3-2.4,5c-0.8,1.7-1.7,3.4-2.7,5c-1.6,2.8-3.2,5.3-4.8,7.5
		c-0.8,1.2-1.7,1.4-2.7,0.6c-1.2-0.8-1.4-1.8-0.6-3c0.8-1,1.5-2.1,2.3-3.5c0.7-1.3,1.4-2.5,2.3-3.8c1-1.6,1.9-3.2,2.7-4.8
		c0.8-1.6,1.5-3.2,2.1-4.8c0.8-1.2,0.6-2-0.6-2.4c-1-0.8-1.9-0.6-2.7,0.6v0.3c-0.8,1.6-1.6,3.2-2.3,4.7c-0.7,1.5-1.6,3.1-2.5,4.6
		c-0.8,1.2-1.5,2.4-2.1,3.5c-0.6,1.1-1.3,2.3-2.1,3.5C1069.5,284.3,1068.5,284.5,1067.3,283.9z M1124.6,220.3h20.1v4.5
		c0,3.2-0.1,6.4-0.3,9.5c-0.2,3.1-0.6,6.3-1.2,9.4c-1,7.2-2.8,14.2-5.3,20.9c-2.5,6.7-5.5,13.3-9.2,19.6c-1.4,2.6-3.1,5.3-5.1,8.1
		c-0.8,1.2-1.7,1.4-2.7,0.6c-1-0.6-1.2-1.6-0.6-3c1-1.2,1.8-2.4,2.5-3.8c0.7-1.3,1.4-2.6,2.3-4c2.2-3.4,4-6.8,5.4-10.2
		c0.4-1.2,0.1-2-0.9-2.4c-1-0.8-1.9-0.6-2.7,0.6v0.3c-0.8,1.6-1.6,3.3-2.4,5c-0.8,1.7-1.7,3.4-2.7,5c-1.6,2.8-3.2,5.3-4.8,7.5
		c-0.8,1.2-1.7,1.4-2.7,0.6c-1.2-0.8-1.4-1.8-0.6-3c0.8-1,1.5-2.1,2.3-3.5c0.7-1.3,1.4-2.5,2.3-3.8c1-1.6,1.9-3.2,2.7-4.8
		c0.8-1.6,1.5-3.2,2.1-4.8c0.8-1.2,0.6-2-0.6-2.4c-1-0.8-1.9-0.6-2.7,0.6v0.3c-0.8,1.6-1.6,3.2-2.3,4.7c-0.7,1.5-1.6,3.1-2.5,4.6
		c-0.8,1.2-1.5,2.4-2.1,3.5c-0.6,1.1-1.3,2.3-2.1,3.5c-0.8,1-1.8,1.2-3,0.6c-1.2-0.8-1.4-1.8-0.6-3c1.4-2,2.8-4.2,4.2-6.6
		c8.8-15.4,13.2-32,13.2-49.8V220.3z"/>
</g>
</svg>
