<?xml version="1.0" encoding="utf-8"?>
<!-- Generator: Adobe Illustrator 21.0.0, SVG Export Plug-In . SVG Version: 6.00 Build 0)  -->
<svg version="1.1" id="图层_1" xmlns="http://www.w3.org/2000/svg" xmlns:xlink="http://www.w3.org/1999/xlink" x="0px" y="0px"
	 viewBox="0 0 962.1 461.9" style="enable-background:new 0 0 962.1 461.9;" xml:space="preserve">
<style type="text/css">
	.st0{enable-background:new    ;}
	.st1{fill:#2A5FAA;}
	.st2{fill:#FFFFFF;}
</style>
<g class="st0">
	<path class="st1" d="M66.2,119.2h19.2v19.2H66.2V119.2z M85.4,119.2h19.2v19.2H85.4V119.2z M85.4,138.4h19.2v19.2H85.4V138.4z
		 M85.4,176.8h19.2v19.2H85.4V176.8z M104.7,80.7h19.2v19.2h-19.2V80.7z M104.7,119.2h19.2v19.2h-19.2V119.2z M104.7,157.6h19.2
		v19.2h-19.2V157.6z M123.9,119.2h19.2v19.2h-19.2V119.2z M123.9,138.4h19.2v19.2h-19.2V138.4z M123.9,176.8h19.2v19.2h-19.2V176.8z
		 M143.1,119.2h19.2v19.2h-19.2V119.2z"/>
	<path class="st1" d="M200.8,42.2h19.2v19.2h-19.2V42.2z M220.1,23h19.2v19.2h-19.2V23z M220.1,42.2h19.2v19.2h-19.2V42.2z
		 M220.1,61.5h19.2v19.2h-19.2V61.5z M220.1,99.9h19.2v19.2h-19.2V99.9z M220.1,138.4h19.2v19.2h-19.2V138.4z M220.1,157.6h19.2
		v19.2h-19.2V157.6z M239.3,42.2h19.2v19.2h-19.2V42.2z M239.3,99.9h19.2v19.2h-19.2V99.9z M239.3,119.2h19.2v19.2h-19.2V119.2z
		 M239.3,176.8h19.2v19.2h-19.2V176.8z M258.5,23h19.2v19.2h-19.2V23z M258.5,42.2h19.2v19.2h-19.2V42.2z M258.5,61.5h19.2v19.2
		h-19.2V61.5z M258.5,157.6h19.2v19.2h-19.2V157.6z M277.8,42.2H297v19.2h-19.2V42.2z"/>
	<path class="st1" d="M335.4,61.5h19.2v19.2h-19.2V61.5z M335.4,99.9h19.2v19.2h-19.2V99.9z M354.7,61.5h19.2v19.2h-19.2V61.5z
		 M354.7,80.7h19.2v19.2h-19.2V80.7z M354.7,99.9h19.2v19.2h-19.2V99.9z M354.7,138.4h19.2v19.2h-19.2V138.4z M354.7,157.6h19.2
		v19.2h-19.2V157.6z M354.7,176.8h19.2v19.2h-19.2V176.8z M373.9,23h19.2v19.2h-19.2V23z M373.9,61.5h19.2v19.2h-19.2V61.5z
		 M373.9,99.9h19.2v19.2h-19.2V99.9z M373.9,138.4h19.2v19.2h-19.2V138.4z M373.9,176.8h19.2v19.2h-19.2V176.8z M393.1,61.5h19.2
		v19.2h-19.2V61.5z M393.1,80.7h19.2v19.2h-19.2V80.7z M393.1,99.9h19.2v19.2h-19.2V99.9z M393.1,138.4h19.2v19.2h-19.2V138.4z
		 M393.1,157.6h19.2v19.2h-19.2V157.6z M393.1,176.8h19.2v19.2h-19.2V176.8z M412.4,61.5h19.2v19.2h-19.2V61.5z M412.4,99.9h19.2
		v19.2h-19.2V99.9z M450.8,61.5h19.2v19.2h-19.2V61.5z M450.8,80.7h19.2v19.2h-19.2V80.7z M450.8,99.9h19.2v19.2h-19.2V99.9z
		 M450.8,119.2h19.2v19.2h-19.2V119.2z M450.8,138.4h19.2v19.2h-19.2V138.4z M450.8,157.6h19.2v19.2h-19.2V157.6z M470.1,61.5h19.2
		v19.2h-19.2V61.5z M470.1,99.9h19.2v19.2h-19.2V99.9z M470.1,138.4h19.2v19.2h-19.2V138.4z M489.3,61.5h19.2v19.2h-19.2V61.5z
		 M489.3,80.7h19.2v19.2h-19.2V80.7z M489.3,119.2h19.2v19.2h-19.2V119.2z M489.3,138.4h19.2v19.2h-19.2V138.4z"/>
</g>
<g class="st0">
	<path class="st2" d="M76.2,110.2h19.2v19.2H76.2V110.2z M95.4,110.2h19.2v19.2H95.4V110.2z M95.4,129.4h19.2v19.2H95.4V129.4z
		 M95.4,167.8h19.2v19.2H95.4V167.8z M114.7,71.7h19.2v19.2h-19.2V71.7z M114.7,110.2h19.2v19.2h-19.2V110.2z M114.7,148.6h19.2
		v19.2h-19.2V148.6z M133.9,110.2h19.2v19.2h-19.2V110.2z M133.9,129.4h19.2v19.2h-19.2V129.4z M133.9,167.8h19.2v19.2h-19.2V167.8z
		 M153.1,110.2h19.2v19.2h-19.2V110.2z"/>
	<path class="st2" d="M210.8,33.2h19.2v19.2h-19.2V33.2z M230.1,14h19.2v19.2h-19.2V14z M230.1,33.2h19.2v19.2h-19.2V33.2z
		 M230.1,52.5h19.2v19.2h-19.2V52.5z M230.1,90.9h19.2v19.2h-19.2V90.9z M230.1,129.4h19.2v19.2h-19.2V129.4z M230.1,148.6h19.2
		v19.2h-19.2V148.6z M249.3,33.2h19.2v19.2h-19.2V33.2z M249.3,90.9h19.2v19.2h-19.2V90.9z M249.3,110.2h19.2v19.2h-19.2V110.2z
		 M249.3,167.8h19.2v19.2h-19.2V167.8z M268.5,14h19.2v19.2h-19.2V14z M268.5,33.2h19.2v19.2h-19.2V33.2z M268.5,52.5h19.2v19.2
		h-19.2V52.5z M268.5,148.6h19.2v19.2h-19.2V148.6z M287.8,33.2H307v19.2h-19.2V33.2z"/>
	<path class="st2" d="M345.4,52.5h19.2v19.2h-19.2V52.5z M345.4,90.9h19.2v19.2h-19.2V90.9z M364.7,52.5h19.2v19.2h-19.2V52.5z
		 M364.7,71.7h19.2v19.2h-19.2V71.7z M364.7,90.9h19.2v19.2h-19.2V90.9z M364.7,129.4h19.2v19.2h-19.2V129.4z M364.7,148.6h19.2
		v19.2h-19.2V148.6z M364.7,167.8h19.2v19.2h-19.2V167.8z M383.9,14h19.2v19.2h-19.2V14z M383.9,52.5h19.2v19.2h-19.2V52.5z
		 M383.9,90.9h19.2v19.2h-19.2V90.9z M383.9,129.4h19.2v19.2h-19.2V129.4z M383.9,167.8h19.2v19.2h-19.2V167.8z M403.1,52.5h19.2
		v19.2h-19.2V52.5z M403.1,71.7h19.2v19.2h-19.2V71.7z M403.1,90.9h19.2v19.2h-19.2V90.9z M403.1,129.4h19.2v19.2h-19.2V129.4z
		 M403.1,148.6h19.2v19.2h-19.2V148.6z M403.1,167.8h19.2v19.2h-19.2V167.8z M422.4,52.5h19.2v19.2h-19.2V52.5z M422.4,90.9h19.2
		v19.2h-19.2V90.9z M460.8,52.5h19.2v19.2h-19.2V52.5z M460.8,71.7h19.2v19.2h-19.2V71.7z M460.8,90.9h19.2v19.2h-19.2V90.9z
		 M460.8,110.2h19.2v19.2h-19.2V110.2z M460.8,129.4h19.2v19.2h-19.2V129.4z M460.8,148.6h19.2v19.2h-19.2V148.6z M480.1,52.5h19.2
		v19.2h-19.2V52.5z M480.1,90.9h19.2v19.2h-19.2V90.9z M480.1,129.4h19.2v19.2h-19.2V129.4z M499.3,52.5h19.2v19.2h-19.2V52.5z
		 M499.3,71.7h19.2v19.2h-19.2V71.7z M499.3,110.2h19.2v19.2h-19.2V110.2z M499.3,129.4h19.2v19.2h-19.2V129.4z"/>
</g>
<g class="st0">
	<path class="st1" d="M565.9,124.2h11.8v11.3h-11.8V124.2z M565.9,135.5h11.8V147h-11.8V135.5z M565.9,147h11.8v11.5h-11.8V147z
		 M565.9,158.5h11.8v11.5h-11.8V158.5z M565.9,170.1h11.8v11.8h-11.8V170.1z M577.6,124.2h11.3v11.3h-11.3V124.2z M577.6,147h11.3
		v11.5h-11.3V147z M588.9,135.5h11.8V147h-11.8V135.5z M588.9,158.5h11.8v11.5h-11.8V158.5z M588.9,170.1h11.8v11.8h-11.8V170.1z"/>
	<path class="st1" d="M623.5,124.2h11.8v11.3h-11.8V124.2z M623.5,135.5h11.8V147h-11.8V135.5z M623.5,147h11.8v11.5h-11.8V147z
		 M623.5,158.5h11.8v11.5h-11.8V158.5z M623.5,170.1h11.8v11.8h-11.8V170.1z M635.3,124.2h11.3v11.3h-11.3V124.2z M635.3,147h11.3
		v11.5h-11.3V147z M635.3,170.1h11.3v11.8h-11.3V170.1z M646.6,124.2h11.8v11.3h-11.8V124.2z M646.6,170.1h11.8v11.8h-11.8V170.1z"
		/>
	<path class="st1" d="M681.2,135.5H693V147h-11.8V135.5z M681.2,147H693v11.5h-11.8V147z M681.2,158.5H693v11.5h-11.8V158.5z
		 M693,124.2h11.3v11.3H693V124.2z M693,170.1h11.3v11.8H693V170.1z M704.3,135.5h11.8V147h-11.8V135.5z M704.3,158.5h11.8v11.5
		h-11.8V158.5z"/>
	<path class="st1" d="M738.9,124.2h11.8v11.3h-11.8V124.2z M738.9,135.5h11.8V147h-11.8V135.5z M738.9,147h11.8v11.5h-11.8V147z
		 M738.9,158.5h11.8v11.5h-11.8V158.5z M738.9,170.1h11.8v11.8h-11.8V170.1z M750.7,124.2H762v11.3h-11.3V124.2z M750.7,147H762
		v11.5h-11.3V147z M762,135.5h11.8V147H762V135.5z M762,158.5h11.8v11.5H762V158.5z M762,170.1h11.8v11.8H762V170.1z"/>
	<path class="st1" d="M796.6,124.2h11.8v11.3h-11.8V124.2z M796.6,135.5h11.8V147h-11.8V135.5z M796.6,147h11.8v11.5h-11.8V147z
		 M796.6,158.5h11.8v11.5h-11.8V158.5z M808.4,170.1h11.3v11.8h-11.3V170.1z M819.7,124.2h11.8v11.3h-11.8V124.2z M819.7,135.5h11.8
		V147h-11.8V135.5z M819.7,147h11.8v11.5h-11.8V147z M819.7,158.5h11.8v11.5h-11.8V158.5z"/>
	<path class="st1" d="M854.3,124.2h11.8v11.3h-11.8V124.2z M854.3,170.1h11.8v11.8h-11.8V170.1z M866.1,124.2h11.3v11.3h-11.3V124.2
		z M866.1,135.5h11.3V147h-11.3V135.5z M866.1,147h11.3v11.5h-11.3V147z M866.1,158.5h11.3v11.5h-11.3V158.5z M866.1,170.1h11.3
		v11.8h-11.3V170.1z M877.4,124.2h11.8v11.3h-11.8V124.2z M877.4,170.1h11.8v11.8h-11.8V170.1z"/>
	<path class="st1" d="M912,124.2h11.8v11.3H912V124.2z M923.8,124.2h11.3v11.3h-11.3V124.2z M923.8,135.5h11.3V147h-11.3V135.5z
		 M923.8,147h11.3v11.5h-11.3V147z M923.8,158.5h11.3v11.5h-11.3V158.5z M923.8,170.1h11.3v11.8h-11.3V170.1z M935.1,124.2h11.8
		v11.3h-11.8V124.2z"/>
</g>
<g class="st0">
	<path class="st2" d="M572.9,116.2h11.8v11.3h-11.8V116.2z M572.9,127.5h11.8V139h-11.8V127.5z M572.9,139h11.8v11.5h-11.8V139z
		 M572.9,150.5h11.8v11.5h-11.8V150.5z M572.9,162.1h11.8v11.8h-11.8V162.1z M584.6,116.2h11.3v11.3h-11.3V116.2z M584.6,139h11.3
		v11.5h-11.3V139z M595.9,127.5h11.8V139h-11.8V127.5z M595.9,150.5h11.8v11.5h-11.8V150.5z M595.9,162.1h11.8v11.8h-11.8V162.1z"/>
	<path class="st2" d="M630.5,116.2h11.8v11.3h-11.8V116.2z M630.5,127.5h11.8V139h-11.8V127.5z M630.5,139h11.8v11.5h-11.8V139z
		 M630.5,150.5h11.8v11.5h-11.8V150.5z M630.5,162.1h11.8v11.8h-11.8V162.1z M642.3,116.2h11.3v11.3h-11.3V116.2z M642.3,139h11.3
		v11.5h-11.3V139z M642.3,162.1h11.3v11.8h-11.3V162.1z M653.6,116.2h11.8v11.3h-11.8V116.2z M653.6,162.1h11.8v11.8h-11.8V162.1z"
		/>
	<path class="st2" d="M688.2,127.5H700V139h-11.8V127.5z M688.2,139H700v11.5h-11.8V139z M688.2,150.5H700v11.5h-11.8V150.5z
		 M700,116.2h11.3v11.3H700V116.2z M700,162.1h11.3v11.8H700V162.1z M711.3,127.5h11.8V139h-11.8V127.5z M711.3,150.5h11.8v11.5
		h-11.8V150.5z"/>
	<path class="st2" d="M745.9,116.2h11.8v11.3h-11.8V116.2z M745.9,127.5h11.8V139h-11.8V127.5z M745.9,139h11.8v11.5h-11.8V139z
		 M745.9,150.5h11.8v11.5h-11.8V150.5z M745.9,162.1h11.8v11.8h-11.8V162.1z M757.7,116.2H769v11.3h-11.3V116.2z M757.7,139H769
		v11.5h-11.3V139z M769,127.5h11.8V139H769V127.5z M769,150.5h11.8v11.5H769V150.5z M769,162.1h11.8v11.8H769V162.1z"/>
	<path class="st2" d="M803.6,116.2h11.8v11.3h-11.8V116.2z M803.6,127.5h11.8V139h-11.8V127.5z M803.6,139h11.8v11.5h-11.8V139z
		 M803.6,150.5h11.8v11.5h-11.8V150.5z M815.4,162.1h11.3v11.8h-11.3V162.1z M826.7,116.2h11.8v11.3h-11.8V116.2z M826.7,127.5h11.8
		V139h-11.8V127.5z M826.7,139h11.8v11.5h-11.8V139z M826.7,150.5h11.8v11.5h-11.8V150.5z"/>
	<path class="st2" d="M861.3,116.2h11.8v11.3h-11.8V116.2z M861.3,162.1h11.8v11.8h-11.8V162.1z M873.1,116.2h11.3v11.3h-11.3V116.2
		z M873.1,127.5h11.3V139h-11.3V127.5z M873.1,139h11.3v11.5h-11.3V139z M873.1,150.5h11.3v11.5h-11.3V150.5z M873.1,162.1h11.3
		v11.8h-11.3V162.1z M884.4,116.2h11.8v11.3h-11.8V116.2z M884.4,162.1h11.8v11.8h-11.8V162.1z"/>
	<path class="st2" d="M919,116.2h11.8v11.3H919V116.2z M930.8,116.2h11.3v11.3h-11.3V116.2z M930.8,127.5h11.3V139h-11.3V127.5z
		 M930.8,139h11.3v11.5h-11.3V139z M930.8,150.5h11.3v11.5h-11.3V150.5z M930.8,162.1h11.3v11.8h-11.3V162.1z M942.1,116.2h11.8
		v11.3h-11.8V116.2z"/>
</g>
<g class="st0">
	<path class="st1" d="M33,290.5h25v25H33V290.5z M58,265.5h25v25H58V265.5z M58,315.5h25v25H58V315.5z M58,365.5h25v25H58V365.5z
		 M58,415.5h25v25H58V415.5z M83,240.5h25v25H83V240.5z M83,315.5h25v25H83V315.5z M83,340.5h25v25H83V340.5z M83,365.5h25v25H83
		V365.5z M83,390.5h25v25H83V390.5z M83,415.5h25v25H83V415.5z M108,265.5h25v25h-25V265.5z M108,315.5h25v25h-25V315.5z M108,365.5
		h25v25h-25V365.5z M108,415.5h25v25h-25V415.5z M133,290.5h25v25h-25V290.5z"/>
	<path class="st1" d="M208,265.5h25v25h-25V265.5z M208,290.5h25v25h-25V290.5z M208,315.5h25v25h-25V315.5z M208,340.5h25v25h-25
		V340.5z M208,365.5h25v25h-25V365.5z M208,390.5h25v25h-25V390.5z M208,415.5h25v25h-25V415.5z M233,215.5h25v25h-25V215.5z
		 M233,265.5h25v25h-25V265.5z M233,415.5h25v25h-25V415.5z M258,215.5h25v25h-25V215.5z M258,240.5h25v25h-25V240.5z M258,265.5h25
		v25h-25V265.5z M258,290.5h25v25h-25V290.5z M258,315.5h25v25h-25V315.5z M258,340.5h25v25h-25V340.5z M258,365.5h25v25h-25V365.5z
		 M258,390.5h25v25h-25V390.5z M258,415.5h25v25h-25V415.5z M283,215.5h25v25h-25V215.5z M283,265.5h25v25h-25V265.5z M283,315.5h25
		v25h-25V315.5z M283,365.5h25v25h-25V365.5z M283,415.5h25v25h-25V415.5z M308,265.5h25v25h-25V265.5z M308,290.5h25v25h-25V290.5z
		 M308,315.5h25v25h-25V315.5z M308,340.5h25v25h-25V340.5z M308,365.5h25v25h-25V365.5z M308,390.5h25v25h-25V390.5z M308,415.5h25
		v25h-25V415.5z M333,265.5h25v25h-25V265.5z M333,415.5h25v25h-25V415.5z M358,265.5h25v25h-25V265.5z M358,290.5h25v25h-25V290.5z
		 M358,315.5h25v25h-25V315.5z M358,340.5h25v25h-25V340.5z M358,365.5h25v25h-25V365.5z M358,390.5h25v25h-25V390.5z M358,415.5h25
		v25h-25V415.5z"/>
	<path class="st1" d="M433,315.5h25v25h-25V315.5z M433,365.5h25v25h-25V365.5z M433,415.5h25v25h-25V415.5z M458,290.5h25v25h-25
		V290.5z M458,315.5h25v25h-25V315.5z M458,340.5h25v25h-25V340.5z M458,365.5h25v25h-25V365.5z M458,390.5h25v25h-25V390.5z
		 M458,415.5h25v25h-25V415.5z M483,315.5h25v25h-25V315.5z M483,365.5h25v25h-25V365.5z M533,265.5h25v25h-25V265.5z M533,315.5h25
		v25h-25V315.5z M558,265.5h25v25h-25V265.5z M558,290.5h25v25h-25V290.5z M558,365.5h25v25h-25V365.5z M558,390.5h25v25h-25V390.5z
		 M558,415.5h25v25h-25V415.5z M583,265.5h25v25h-25V265.5z M583,315.5h25v25h-25V315.5z M583,365.5h25v25h-25V365.5z M583,415.5h25
		v25h-25V415.5z M608,265.5h25v25h-25V265.5z M608,290.5h25v25h-25V290.5z M608,315.5h25v25h-25V315.5z M608,365.5h25v25h-25V365.5z
		 M608,390.5h25v25h-25V390.5z M608,415.5h25v25h-25V415.5z"/>
	<path class="st1" d="M683,265.5h25v25h-25V265.5z M683,315.5h25v25h-25V315.5z M683,415.5h25v25h-25V415.5z M708,265.5h25v25h-25
		V265.5z M708,290.5h25v25h-25V290.5z M708,315.5h25v25h-25V315.5z M708,365.5h25v25h-25V365.5z M733,215.5h25v25h-25V215.5z
		 M733,265.5h25v25h-25V265.5z M733,315.5h25v25h-25V315.5z M733,340.5h25v25h-25V340.5z M733,365.5h25v25h-25V365.5z M733,390.5h25
		v25h-25V390.5z M733,415.5h25v25h-25V415.5z M758,265.5h25v25h-25V265.5z M758,290.5h25v25h-25V290.5z M758,315.5h25v25h-25V315.5z
		 M758,365.5h25v25h-25V365.5z M783,265.5h25v25h-25V265.5z M783,315.5h25v25h-25V315.5z M783,415.5h25v25h-25V415.5z M808,365.5h25
		v25h-25V365.5z M833,265.5h25v25h-25V265.5z M833,290.5h25v25h-25V290.5z M833,315.5h25v25h-25V315.5z M833,340.5h25v25h-25V340.5z
		 M858,265.5h25v25h-25V265.5z M858,315.5h25v25h-25V315.5z M883,240.5h25v25h-25V240.5z M883,315.5h25v25h-25V315.5z M883,340.5h25
		v25h-25V340.5z M883,365.5h25v25h-25V365.5z M908,315.5h25v25h-25V315.5z"/>
</g>
<g class="st0">
	<path class="st2" d="M40,275.6h25v25H40V275.6z M65,250.6h25v25H65V250.6z M65,300.6h25v25H65V300.6z M65,350.6h25v25H65V350.6z
		 M65,400.6h25v25H65V400.6z M90,225.6h25v25H90V225.6z M90,300.6h25v25H90V300.6z M90,325.6h25v25H90V325.6z M90,350.6h25v25H90
		V350.6z M90,375.6h25v25H90V375.6z M90,400.6h25v25H90V400.6z M115,250.6h25v25h-25V250.6z M115,300.6h25v25h-25V300.6z M115,350.6
		h25v25h-25V350.6z M115,400.6h25v25h-25V400.6z M140,275.6h25v25h-25V275.6z"/>
	<path class="st2" d="M215,250.6h25v25h-25V250.6z M215,275.6h25v25h-25V275.6z M215,300.6h25v25h-25V300.6z M215,325.6h25v25h-25
		V325.6z M215,350.6h25v25h-25V350.6z M215,375.6h25v25h-25V375.6z M215,400.6h25v25h-25V400.6z M240,200.6h25v25h-25V200.6z
		 M240,250.6h25v25h-25V250.6z M240,400.6h25v25h-25V400.6z M265,200.6h25v25h-25V200.6z M265,225.6h25v25h-25V225.6z M265,250.6h25
		v25h-25V250.6z M265,275.6h25v25h-25V275.6z M265,300.6h25v25h-25V300.6z M265,325.6h25v25h-25V325.6z M265,350.6h25v25h-25V350.6z
		 M265,375.6h25v25h-25V375.6z M265,400.6h25v25h-25V400.6z M290,200.6h25v25h-25V200.6z M290,250.6h25v25h-25V250.6z M290,300.6h25
		v25h-25V300.6z M290,350.6h25v25h-25V350.6z M290,400.6h25v25h-25V400.6z M315,250.6h25v25h-25V250.6z M315,275.6h25v25h-25V275.6z
		 M315,300.6h25v25h-25V300.6z M315,325.6h25v25h-25V325.6z M315,350.6h25v25h-25V350.6z M315,375.6h25v25h-25V375.6z M315,400.6h25
		v25h-25V400.6z M340,250.6h25v25h-25V250.6z M340,400.6h25v25h-25V400.6z M365,250.6h25v25h-25V250.6z M365,275.6h25v25h-25V275.6z
		 M365,300.6h25v25h-25V300.6z M365,325.6h25v25h-25V325.6z M365,350.6h25v25h-25V350.6z M365,375.6h25v25h-25V375.6z M365,400.6h25
		v25h-25V400.6z"/>
	<path class="st2" d="M440,300.6h25v25h-25V300.6z M440,350.6h25v25h-25V350.6z M440,400.6h25v25h-25V400.6z M465,275.6h25v25h-25
		V275.6z M465,300.6h25v25h-25V300.6z M465,325.6h25v25h-25V325.6z M465,350.6h25v25h-25V350.6z M465,375.6h25v25h-25V375.6z
		 M465,400.6h25v25h-25V400.6z M490,300.6h25v25h-25V300.6z M490,350.6h25v25h-25V350.6z M540,250.6h25v25h-25V250.6z M540,300.6h25
		v25h-25V300.6z M565,250.6h25v25h-25V250.6z M565,275.6h25v25h-25V275.6z M565,350.6h25v25h-25V350.6z M565,375.6h25v25h-25V375.6z
		 M565,400.6h25v25h-25V400.6z M590,250.6h25v25h-25V250.6z M590,300.6h25v25h-25V300.6z M590,350.6h25v25h-25V350.6z M590,400.6h25
		v25h-25V400.6z M615,250.6h25v25h-25V250.6z M615,275.6h25v25h-25V275.6z M615,300.6h25v25h-25V300.6z M615,350.6h25v25h-25V350.6z
		 M615,375.6h25v25h-25V375.6z M615,400.6h25v25h-25V400.6z"/>
	<path class="st2" d="M690,250.6h25v25h-25V250.6z M690,300.6h25v25h-25V300.6z M690,400.6h25v25h-25V400.6z M715,250.6h25v25h-25
		V250.6z M715,275.6h25v25h-25V275.6z M715,300.6h25v25h-25V300.6z M715,350.6h25v25h-25V350.6z M740,200.6h25v25h-25V200.6z
		 M740,250.6h25v25h-25V250.6z M740,300.6h25v25h-25V300.6z M740,325.6h25v25h-25V325.6z M740,350.6h25v25h-25V350.6z M740,375.6h25
		v25h-25V375.6z M740,400.6h25v25h-25V400.6z M765,250.6h25v25h-25V250.6z M765,275.6h25v25h-25V275.6z M765,300.6h25v25h-25V300.6z
		 M765,350.6h25v25h-25V350.6z M790,250.6h25v25h-25V250.6z M790,300.6h25v25h-25V300.6z M790,400.6h25v25h-25V400.6z M815,350.6h25
		v25h-25V350.6z M840,250.6h25v25h-25V250.6z M840,275.6h25v25h-25V275.6z M840,300.6h25v25h-25V300.6z M840,325.6h25v25h-25V325.6z
		 M865,250.6h25v25h-25V250.6z M865,300.6h25v25h-25V300.6z M890,225.6h25v25h-25V225.6z M890,300.6h25v25h-25V300.6z M890,325.6h25
		v25h-25V325.6z M890,350.6h25v25h-25V350.6z M915,300.6h25v25h-25V300.6z"/>
</g>
</svg>
