<svg id="图层_1" data-name="图层 1" xmlns="http://www.w3.org/2000/svg" viewBox="0 0 227.55 227.55"><defs><style>.cls-1{fill:#612389;}.cls-2{fill:#f2e195;}.cls-3{fill:#f3dc65;}.cls-4{fill:#f2cc21;}.cls-5{fill:#fff;}.cls-6{fill:#616060;}.cls-7{fill:#4d4d4d;}.cls-8{fill:#3c3d3d;}.cls-9{fill:none;}</style></defs><title>final plan icon5</title><g id="_编组_4" data-name="&lt;编组&gt;"><g id="_编组_5" data-name="&lt;编组&gt;"><rect id="_矩形_" data-name="&lt;矩形&gt;" class="cls-1" x="106.75" y="83.8" width="11.05" height="5.38"/><rect id="_矩形_2" data-name="&lt;矩形&gt;" class="cls-1" x="90.37" y="94.57" width="11.05" height="5.38"/><rect id="_矩形_3" data-name="&lt;矩形&gt;" class="cls-1" x="-376.04" y="2805.86" width="16.17" height="5.38" transform="translate(-2720.87 -254.18) rotate(-90)"/><rect id="_矩形_4" data-name="&lt;矩形&gt;" class="cls-1" x="-368.1" y="2797.56" width="11.05" height="5.38" transform="translate(-2707.19 -257.09) rotate(-90)"/><rect id="_矩形_5" data-name="&lt;矩形&gt;" class="cls-1" x="95.9" y="89.18" width="16.38" height="5.38"/><rect id="_矩形_6" data-name="&lt;矩形&gt;" class="cls-1" x="101.43" y="94.57" width="43.17" height="16.44"/><rect id="_矩形_7" data-name="&lt;矩形&gt;" class="cls-1" x="112.28" y="89.18" width="27.06" height="5.38"/><rect id="_矩形_8" data-name="&lt;矩形&gt;" class="cls-1" x="117.8" y="83.8" width="10.73" height="5.38"/><rect id="_矩形_9" data-name="&lt;矩形&gt;" class="cls-1" x="84.99" y="121.86" width="21.63" height="5.47"/><rect id="_矩形_10" data-name="&lt;矩形&gt;" class="cls-1" x="90.54" y="127.33" width="16.08" height="5.49"/><rect id="_矩形_11" data-name="&lt;矩形&gt;" class="cls-1" x="95.81" y="132.81" width="10.82" height="10.93"/><rect id="_矩形_12" data-name="&lt;矩形&gt;" class="cls-1" x="95.76" y="99.95" width="5.67" height="21.91"/><rect id="_矩形_13" data-name="&lt;矩形&gt;" class="cls-1" x="90.37" y="111" width="5.38" height="10.86"/><rect id="_矩形_14" data-name="&lt;矩形&gt;" class="cls-1" x="101.43" y="111" width="10.79" height="5.43"/><rect id="_矩形_15" data-name="&lt;矩形&gt;" class="cls-1" x="101.43" y="116.43" width="5.2" height="5.43"/><rect id="_矩形_16" data-name="&lt;矩形&gt;" class="cls-1" x="123.01" y="111" width="21.58" height="5.43"/><rect id="_矩形_17" data-name="&lt;矩形&gt;" class="cls-1" x="128.55" y="116.43" width="16.05" height="5.43"/><rect id="_矩形_18" data-name="&lt;矩形&gt;" class="cls-1" x="128.55" y="121.86" width="10.91" height="5.47"/><rect id="_矩形_19" data-name="&lt;矩形&gt;" class="cls-1" x="128.55" y="127.33" width="5.45" height="10.89"/><rect id="_矩形_20" data-name="&lt;矩形&gt;" class="cls-1" x="101.37" y="143.74" width="5.26" height="11.17"/><rect id="_矩形_21" data-name="&lt;矩形&gt;" class="cls-1" x="128.55" y="143.44" width="5.26" height="11.17"/><rect id="_矩形_22" data-name="&lt;矩形&gt;" class="cls-1" x="106.62" y="149.03" width="5.42" height="11.15"/><rect id="_矩形_23" data-name="&lt;矩形&gt;" class="cls-1" x="123.12" y="149.03" width="5.42" height="11.15"/><rect id="_矩形_24" data-name="&lt;矩形&gt;" class="cls-1" x="128.55" y="138.22" width="10.75" height="5.22"/><rect id="_矩形_25" data-name="&lt;矩形&gt;" class="cls-1" x="134" y="127.33" width="10.6" height="10.89"/><rect id="_矩形_26" data-name="&lt;矩形&gt;" class="cls-1" x="139.45" y="121.86" width="11.03" height="5.47"/><rect id="_矩形_27" data-name="&lt;矩形&gt;" class="cls-1" x="144.6" y="105.67" width="5.89" height="16.19"/><rect id="_矩形_28" data-name="&lt;矩形&gt;" class="cls-1" x="112.22" y="111" width="10.79" height="5.43"/><rect id="_矩形_29" data-name="&lt;矩形&gt;" class="cls-1" x="106.62" y="116.43" width="5.42" height="32.59"/><rect id="_矩形_30" data-name="&lt;矩形&gt;" class="cls-1" x="123.12" y="116.43" width="5.42" height="32.59"/><rect id="_矩形_31" data-name="&lt;矩形&gt;" class="cls-1" x="112.05" y="149.03" width="11.08" height="11.15"/><rect id="_矩形_32" data-name="&lt;矩形&gt;" class="cls-1" x="117.59" y="143.74" width="5.54" height="5.28"/><rect id="_矩形_33" data-name="&lt;矩形&gt;" class="cls-1" x="106.62" y="160.47" width="5.42" height="15.94"/><rect id="_矩形_34" data-name="&lt;矩形&gt;" class="cls-1" x="112.05" y="160.17" width="5.54" height="5.51"/><rect id="_矩形_35" data-name="&lt;矩形&gt;" class="cls-1" x="112.05" y="165.68" width="5.54" height="16.23"/><rect id="_矩形_36" data-name="&lt;矩形&gt;" class="cls-1" x="117.59" y="160.17" width="5.54" height="16.23"/><rect id="_矩形_37" data-name="&lt;矩形&gt;" class="cls-1" x="117.59" y="176.4" width="5.54" height="5.51"/><rect id="_矩形_38" data-name="&lt;矩形&gt;" class="cls-1" x="123.07" y="160.17" width="5.54" height="5.51"/><rect id="_矩形_39" data-name="&lt;矩形&gt;" class="cls-1" x="123.07" y="165.68" width="5.54" height="10.72"/><rect id="_矩形_40" data-name="&lt;矩形&gt;" class="cls-1" x="155.64" y="132.77" width="5.68" height="5.68"/><rect id="_矩形_41" data-name="&lt;矩形&gt;" class="cls-1" x="79.31" y="132.77" width="5.68" height="5.68"/><rect id="_矩形_42" data-name="&lt;矩形&gt;" class="cls-1" x="73.63" y="105.69" width="5.68" height="5.68"/><rect id="_矩形_43" data-name="&lt;矩形&gt;" class="cls-1" x="84.48" y="78.12" width="5.68" height="5.68"/><rect id="_矩形_44" data-name="&lt;矩形&gt;" class="cls-1" x="117.61" y="72.44" width="5.68" height="5.68"/><rect id="_矩形_45" data-name="&lt;矩形&gt;" class="cls-1" x="117.61" y="56.44" width="5.68" height="5.68"/><rect id="_矩形_46" data-name="&lt;矩形&gt;" class="cls-1" x="144.6" y="78.12" width="5.68" height="5.68"/><rect id="_矩形_47" data-name="&lt;矩形&gt;" class="cls-1" x="155.7" y="105.67" width="5.68" height="5.68"/><rect id="_矩形_48" data-name="&lt;矩形&gt;" class="cls-1" x="171.97" y="100.25" width="5.68" height="5.68"/><rect id="_矩形_49" data-name="&lt;矩形&gt;" class="cls-1" x="155.7" y="67.39" width="5.68" height="5.68"/><rect id="_矩形_50" data-name="&lt;矩形&gt;" class="cls-1" x="73.89" y="67.4" width="5.68" height="5.68"/><rect id="_矩形_51" data-name="&lt;矩形&gt;" class="cls-1" x="57.53" y="99.95" width="5.68" height="5.68"/><rect id="_矩形_52" data-name="&lt;矩形&gt;" class="cls-1" x="68.5" y="138.06" width="5.68" height="5.68"/><rect id="_矩形_53" data-name="&lt;矩形&gt;" class="cls-1" x="166.61" y="138.22" width="5.68" height="5.68"/><rect id="_矩形_54" data-name="&lt;矩形&gt;" class="cls-1" x="112.05" y="116.43" width="11.08" height="27.31"/><rect id="_矩形_55" data-name="&lt;矩形&gt;" class="cls-1" x="112.05" y="143.74" width="5.54" height="5.28"/></g><g id="_编组_6" data-name="&lt;编组&gt;"><rect id="_矩形_56" data-name="&lt;矩形&gt;" class="cls-2" x="101.22" y="78.23" width="11.05" height="5.38"/><rect id="_矩形_57" data-name="&lt;矩形&gt;" class="cls-2" x="84.84" y="88.99" width="11.05" height="5.38"/><rect id="_矩形_58" data-name="&lt;矩形&gt;" class="cls-2" x="-381.57" y="2800.29" width="16.17" height="5.38" transform="translate(-2720.83 -265.28) rotate(-90)"/><rect id="_矩形_59" data-name="&lt;矩形&gt;" class="cls-2" x="-373.63" y="2791.99" width="11.05" height="5.38" transform="translate(-2707.15 -268.2) rotate(-90)"/><rect id="_矩形_60" data-name="&lt;矩形&gt;" class="cls-2" x="90.37" y="83.61" width="16.38" height="5.38"/><rect id="_矩形_61" data-name="&lt;矩形&gt;" class="cls-3" x="95.9" y="88.99" width="43.17" height="16.44"/><rect id="_矩形_62" data-name="&lt;矩形&gt;" class="cls-3" x="106.74" y="83.61" width="27.06" height="5.38"/><rect id="_矩形_63" data-name="&lt;矩形&gt;" class="cls-3" x="112.27" y="78.23" width="10.73" height="5.38"/><rect id="_矩形_64" data-name="&lt;矩形&gt;" class="cls-3" x="79.46" y="116.28" width="21.63" height="5.47"/><rect id="_矩形_65" data-name="&lt;矩形&gt;" class="cls-3" x="85.01" y="121.75" width="16.08" height="5.49"/><rect id="_矩形_66" data-name="&lt;矩形&gt;" class="cls-3" x="90.27" y="127.24" width="10.82" height="10.93"/><rect id="_矩形_67" data-name="&lt;矩形&gt;" class="cls-3" x="90.22" y="94.37" width="5.67" height="21.91"/><rect id="_矩形_68" data-name="&lt;矩形&gt;" class="cls-3" x="84.84" y="105.43" width="5.38" height="10.86"/><rect id="_矩形_69" data-name="&lt;矩形&gt;" class="cls-3" x="95.9" y="105.43" width="10.79" height="5.43"/><rect id="_矩形_70" data-name="&lt;矩形&gt;" class="cls-3" x="95.9" y="110.86" width="5.2" height="5.43"/><rect id="_矩形_71" data-name="&lt;矩形&gt;" class="cls-3" x="117.48" y="105.43" width="21.58" height="5.43"/><rect id="_矩形_72" data-name="&lt;矩形&gt;" class="cls-3" x="123.02" y="110.86" width="16.05" height="5.43"/><rect id="_矩形_73" data-name="&lt;矩形&gt;" class="cls-3" x="123.02" y="116.28" width="10.91" height="5.47"/><rect id="_矩形_74" data-name="&lt;矩形&gt;" class="cls-3" x="123.02" y="121.75" width="5.45" height="10.89"/><rect id="_矩形_75" data-name="&lt;矩形&gt;" class="cls-3" x="95.84" y="138.17" width="5.26" height="11.17"/><rect id="_矩形_76" data-name="&lt;矩形&gt;" class="cls-4" x="123.02" y="137.86" width="5.26" height="11.17"/><rect id="_矩形_77" data-name="&lt;矩形&gt;" class="cls-3" x="101.09" y="143.45" width="5.42" height="11.15"/><rect id="_矩形_78" data-name="&lt;矩形&gt;" class="cls-4" x="117.59" y="143.45" width="5.42" height="11.15"/><rect id="_矩形_79" data-name="&lt;矩形&gt;" class="cls-4" x="123.02" y="132.64" width="10.75" height="5.22"/><rect id="_矩形_80" data-name="&lt;矩形&gt;" class="cls-4" x="128.47" y="121.75" width="10.6" height="10.89"/><rect id="_矩形_81" data-name="&lt;矩形&gt;" class="cls-4" x="133.92" y="116.28" width="11.03" height="5.47"/><rect id="_矩形_82" data-name="&lt;矩形&gt;" class="cls-4" x="139.06" y="100.1" width="5.89" height="16.19"/><rect id="_矩形_83" data-name="&lt;矩形&gt;" class="cls-5" x="106.68" y="105.43" width="10.79" height="5.43"/><rect id="_矩形_84" data-name="&lt;矩形&gt;" class="cls-5" x="101.09" y="110.86" width="5.42" height="32.59"/><rect id="_矩形_85" data-name="&lt;矩形&gt;" class="cls-5" x="117.59" y="110.86" width="5.42" height="32.59"/><rect id="_矩形_86" data-name="&lt;矩形&gt;" class="cls-5" x="106.52" y="143.45" width="11.08" height="11.15"/><rect id="_矩形_87" data-name="&lt;矩形&gt;" class="cls-5" x="112.05" y="138.17" width="5.54" height="5.28"/><rect id="_矩形_88" data-name="&lt;矩形&gt;" class="cls-6" x="101.09" y="154.89" width="5.42" height="15.94"/><rect id="_矩形_89" data-name="&lt;矩形&gt;" class="cls-6" x="106.52" y="154.6" width="5.54" height="5.51"/><rect id="_矩形_90" data-name="&lt;矩形&gt;" class="cls-7" x="106.52" y="160.11" width="5.54" height="16.23"/><rect id="_矩形_91" data-name="&lt;矩形&gt;" class="cls-7" x="112.05" y="154.6" width="5.54" height="16.23"/><rect id="_矩形_92" data-name="&lt;矩形&gt;" class="cls-8" x="112.05" y="170.83" width="5.54" height="5.51"/><rect id="_矩形_93" data-name="&lt;矩形&gt;" class="cls-7" x="117.53" y="154.6" width="5.54" height="5.51"/><rect id="_矩形_94" data-name="&lt;矩形&gt;" class="cls-8" x="117.53" y="160.11" width="5.54" height="10.72"/><rect id="_矩形_95" data-name="&lt;矩形&gt;" class="cls-5" x="150.11" y="127.2" width="5.68" height="5.68"/><rect id="_矩形_96" data-name="&lt;矩形&gt;" class="cls-5" x="73.78" y="127.2" width="5.68" height="5.68"/><rect id="_矩形_97" data-name="&lt;矩形&gt;" class="cls-5" x="68.1" y="100.12" width="5.68" height="5.68"/><rect id="_矩形_98" data-name="&lt;矩形&gt;" class="cls-5" x="78.95" y="72.55" width="5.68" height="5.68"/><rect id="_矩形_99" data-name="&lt;矩形&gt;" class="cls-5" x="112.08" y="66.87" width="5.68" height="5.68"/><rect id="_矩形_100" data-name="&lt;矩形&gt;" class="cls-5" x="112.08" y="50.86" width="5.68" height="5.68"/><rect id="_矩形_101" data-name="&lt;矩形&gt;" class="cls-5" x="139.06" y="72.55" width="5.68" height="5.68"/><rect id="_矩形_102" data-name="&lt;矩形&gt;" class="cls-5" x="150.17" y="100.1" width="5.68" height="5.68"/><rect id="_矩形_103" data-name="&lt;矩形&gt;" class="cls-5" x="166.44" y="94.67" width="5.68" height="5.68"/><rect id="_矩形_104" data-name="&lt;矩形&gt;" class="cls-5" x="150.17" y="61.81" width="5.68" height="5.68"/><rect id="_矩形_105" data-name="&lt;矩形&gt;" class="cls-5" x="68.35" y="61.83" width="5.68" height="5.68"/><rect id="_矩形_106" data-name="&lt;矩形&gt;" class="cls-5" x="52" y="94.37" width="5.68" height="5.68"/><rect id="_矩形_107" data-name="&lt;矩形&gt;" class="cls-5" x="62.97" y="132.49" width="5.68" height="5.68"/><rect id="_矩形_108" data-name="&lt;矩形&gt;" class="cls-5" x="161.07" y="132.64" width="5.68" height="5.68"/><rect id="_矩形_109" data-name="&lt;矩形&gt;" class="cls-3" x="106.52" y="110.86" width="11.08" height="27.31"/><rect id="_矩形_110" data-name="&lt;矩形&gt;" class="cls-3" x="106.52" y="138.17" width="5.54" height="5.28"/></g></g><rect class="cls-9" width="227.55" height="227.55"/></svg>