<svg id="图层_1" data-name="图层 1" xmlns="http://www.w3.org/2000/svg" viewBox="0 0 227.55 227.55"><defs><style>.cls-1{fill:#ee7427;}.cls-2{fill:#2f1d13;}.cls-3{fill:#43bee0;}.cls-4{fill:#090815;}.cls-5{fill:#40bee2;}.cls-6{fill:#df2527;}.cls-7{fill:#fcfdfd;}.cls-8{fill:#fff;}.cls-9{fill:none;}</style></defs><title>final plan icon2</title><g id="_编组_3" data-name="&lt;编组&gt;"><g id="_编组_4" data-name="&lt;编组&gt;"><polygon id="_路径_" data-name="&lt;路径&gt;" class="cls-1" points="114.32 178.6 57.6 153.62 57.81 79.13 114.53 104.12 114.32 178.6"/><polygon id="_路径_2" data-name="&lt;路径&gt;" class="cls-2" points="111.74 174.03 60.32 151.38 60.51 84.26 111.93 106.9 111.74 174.03"/><polygon id="_路径_3" data-name="&lt;路径&gt;" class="cls-1" points="78.71 143.05 71.86 140.03 71.97 104.92 78.81 107.93 78.71 143.05"/><polygon id="_路径_4" data-name="&lt;路径&gt;" class="cls-1" points="99.8 152.33 94.52 150.01 94.59 124.84 99.87 127.16 99.8 152.33"/><polygon id="_路径_5" data-name="&lt;路径&gt;" class="cls-1" points="99.88 123.72 94.61 121.4 94.62 114.89 99.89 117.22 99.88 123.72"/><polygon id="_路径_6" data-name="&lt;路径&gt;" class="cls-1" points="85.48 137.18 78.73 134.21 78.76 125.49 85.51 128.46 85.48 137.18"/><polygon id="_路径_7" data-name="&lt;路径&gt;" class="cls-1" points="85.53 119.62 78.78 116.65 78.81 107.93 85.56 110.9 85.53 119.62"/><polygon id="_路径_8" data-name="&lt;路径&gt;" class="cls-1" points="92.21 148.99 85.46 146.02 85.53 119.62 92.29 122.59 92.21 148.99"/></g><g id="_编组_5" data-name="&lt;编组&gt;"><polygon id="_路径_9" data-name="&lt;路径&gt;" class="cls-3" points="171.68 147.85 117.22 178.75 117.59 104.12 172.05 73.22 171.68 147.85"/><polygon id="_路径_10" data-name="&lt;路径&gt;" class="cls-4" points="169.21 145.81 119.84 173.83 120.17 106.58 169.55 78.56 169.21 145.81"/><polygon id="_路径_11" data-name="&lt;路径&gt;" class="cls-5" points="136.39 148.04 130.4 151.44 130.53 125.39 136.52 121.99 136.39 148.04"/><polygon id="_路径_12" data-name="&lt;路径&gt;" class="cls-5" points="148.21 132.6 142.27 135.97 142.4 109.94 148.33 106.58 148.21 132.6"/><polygon id="_路径_13" data-name="&lt;路径&gt;" class="cls-5" points="142.35 118.68 136.52 121.99 136.56 113.25 142.4 109.94 142.35 118.68"/><polygon id="_路径_14" data-name="&lt;路径&gt;" class="cls-5" points="158.71 116.93 150.06 121.84 150.09 115.37 158.75 110.46 158.71 116.93"/><polygon id="_路径_15" data-name="&lt;路径&gt;" class="cls-5" points="158.62 135.43 149.97 140.34 150 133.87 158.65 128.96 158.62 135.43"/><polygon id="_路径_16" data-name="&lt;路径&gt;" class="cls-5" points="158.65 128.96 154.33 131.42 154.36 125.17 158.69 122.71 158.65 128.96"/><polygon id="_路径_17" data-name="&lt;路径&gt;" class="cls-5" points="154.36 125.17 150.03 127.62 150.06 121.84 154.39 119.38 154.36 125.17"/><polygon id="_路径_18" data-name="&lt;路径&gt;" class="cls-5" points="142.27 135.97 136.44 139.28 136.48 130.54 142.31 127.23 142.27 135.97"/></g><g id="_编组_6" data-name="&lt;编组&gt;"><g id="_编组_7" data-name="&lt;编组&gt;"><polygon id="_路径_19" data-name="&lt;路径&gt;" class="cls-6" points="170.07 71.34 115.88 101.64 59.97 77.85 114.17 47.56 170.07 71.34"/><polygon id="_路径_20" data-name="&lt;路径&gt;" class="cls-7" points="79.38 67.01 94.27 58.68 170.07 71.34 155.57 79.45 108.74 71.97 123.54 86.38 132.45 81.39 147.34 84.06 115.88 101.64 79.38 67.01"/></g><polygon id="_路径_21" data-name="&lt;路径&gt;" class="cls-8" points="89.35 67.55 83.33 70.91 77.11 68.27 83.13 64.9 89.35 67.55"/><polygon id="_路径_22" data-name="&lt;路径&gt;" class="cls-8" points="102.67 60.1 96.65 63.47 90.44 60.82 96.46 57.45 102.67 60.1"/><polygon id="_路径_23" data-name="&lt;路径&gt;" class="cls-8" points="111.14 61.48 105.12 64.84 98.91 62.2 104.93 58.83 111.14 61.48"/><polygon id="_路径_24" data-name="&lt;路径&gt;" class="cls-8" points="119.57 62.88 113.55 66.25 107.34 63.6 113.36 60.24 119.57 62.88"/><polygon id="_路径_25" data-name="&lt;路径&gt;" class="cls-8" points="128 64.29 121.98 67.65 115.77 65.01 121.79 61.64 128 64.29"/><polygon id="_路径_26" data-name="&lt;路径&gt;" class="cls-8" points="136.43 65.69 130.4 69.06 124.19 66.41 130.21 63.05 136.43 65.69"/><polygon id="_路径_27" data-name="&lt;路径&gt;" class="cls-8" points="144.85 67.09 138.83 70.46 132.62 67.82 138.64 64.45 144.85 67.09"/><polygon id="_路径_28" data-name="&lt;路径&gt;" class="cls-8" points="153.28 68.5 147.26 71.87 141.05 69.22 147.07 65.86 153.28 68.5"/><polygon id="_路径_29" data-name="&lt;路径&gt;" class="cls-8" points="161.68 69.92 155.66 73.28 149.45 70.64 155.47 67.27 161.68 69.92"/><polygon id="_路径_30" data-name="&lt;路径&gt;" class="cls-8" points="170.07 71.34 164.05 74.71 157.84 72.07 163.86 68.7 170.07 71.34"/><polygon id="_路径_31" data-name="&lt;路径&gt;" class="cls-8" points="93.47 71.36 87.45 74.72 81.24 72.08 87.26 68.72 93.47 71.36"/><polygon id="_路径_32" data-name="&lt;路径&gt;" class="cls-8" points="97.53 75.2 91.51 78.57 85.3 75.93 91.32 72.56 97.53 75.2"/><polygon id="_路径_33" data-name="&lt;路径&gt;" class="cls-8" points="101.63 79.03 95.61 82.39 89.4 79.75 95.42 76.38 101.63 79.03"/><polygon id="_路径_34" data-name="&lt;路径&gt;" class="cls-8" points="115.02 74.6 109 77.97 102.79 75.32 108.81 71.96 115.02 74.6"/><polygon id="_路径_35" data-name="&lt;路径&gt;" class="cls-8" points="121.04 71.23 115.02 74.6 108.81 71.96 114.83 68.59 121.04 71.23"/><polygon id="_路径_36" data-name="&lt;路径&gt;" class="cls-8" points="129.56 72.58 123.54 75.95 117.33 73.31 123.35 69.94 129.56 72.58"/><polygon id="_路径_37" data-name="&lt;路径&gt;" class="cls-8" points="138.02 73.97 132 77.34 125.79 74.7 131.81 71.33 138.02 73.97"/><polygon id="_路径_38" data-name="&lt;路径&gt;" class="cls-8" points="146.51 75.34 140.49 78.71 134.28 76.07 140.3 72.7 146.51 75.34"/><polygon id="_路径_39" data-name="&lt;路径&gt;" class="cls-8" points="154.92 76.75 148.9 80.12 142.69 77.48 148.71 74.11 154.92 76.75"/><polygon id="_路径_40" data-name="&lt;路径&gt;" class="cls-8" points="160.48 76.71 154.46 80.08 148.24 77.43 154.27 74.06 160.48 76.71"/><polygon id="_路径_41" data-name="&lt;路径&gt;" class="cls-8" points="119.08 78.45 113.06 81.81 106.85 79.17 112.87 75.8 119.08 78.45"/><polygon id="_路径_42" data-name="&lt;路径&gt;" class="cls-8" points="122.98 82.38 116.96 85.75 110.75 83.1 116.77 79.74 122.98 82.38"/><polygon id="_路径_43" data-name="&lt;路径&gt;" class="cls-8" points="147.68 83.86 141.66 87.23 135.45 84.58 141.47 81.22 147.68 83.86"/><polygon id="_路径_44" data-name="&lt;路径&gt;" class="cls-8" points="140.33 83.09 134.31 86.46 128.1 83.82 134.12 80.45 140.33 83.09"/><polygon id="_路径_45" data-name="&lt;路径&gt;" class="cls-8" points="125.09 85.5 119.06 88.87 112.85 86.22 118.88 82.86 125.09 85.5"/><polygon id="_路径_46" data-name="&lt;路径&gt;" class="cls-8" points="105.63 82.91 99.61 86.28 93.39 83.63 99.42 80.27 105.63 82.91"/><polygon id="_路径_47" data-name="&lt;路径&gt;" class="cls-8" points="109.69 86.76 103.67 90.12 97.45 87.48 103.47 84.11 109.69 86.76"/><polygon id="_路径_48" data-name="&lt;路径&gt;" class="cls-8" points="113.78 90.59 107.75 93.95 101.54 91.31 107.56 87.94 113.78 90.59"/><polygon id="_路径_49" data-name="&lt;路径&gt;" class="cls-8" points="117.83 94.43 111.81 97.8 105.6 95.16 111.62 91.79 117.83 94.43"/><polygon id="_路径_50" data-name="&lt;路径&gt;" class="cls-8" points="121.9 98.28 115.88 101.64 109.67 99 115.69 95.63 121.9 98.28"/></g></g><rect class="cls-9" width="227.55" height="227.55"/></svg>