<?xml version="1.0" encoding="utf-8"?>
<!-- Generator: Adobe Illustrator 21.0.0, SVG Export Plug-In . SVG Version: 6.00 Build 0)  -->
<svg version="1.1" id="图层_1" xmlns="http://www.w3.org/2000/svg" xmlns:xlink="http://www.w3.org/1999/xlink" x="0px" y="0px"
	 viewBox="0 0 1500 500" style="enable-background:new 0 0 1500 500;" xml:space="preserve">
<style type="text/css">
	.st0{enable-background:new    ;}
	.st1{fill:#AE2024;}
	.st2{fill:#FFFFFF;}
	.st3{display:none;}
	.st4{display:inline;fill:#FFFFFF;}
	.st5{fill:none;}
</style>
<title>final plan 11</title>
<g id="_编组_">
	<g class="st0">
		<path class="st1" d="M350.7,173.3h-20.4v-4.5c0-3.2,0.2-6.3,0.5-9.5c0.3-3.1,0.6-6.2,1-9.4c2.4-14.4,7.2-27.9,14.4-40.5
			c0.8-1.6,1.6-3,2.4-4.4c0.8-1.3,1.7-2.5,2.7-3.8c0.8-1.2,1.7-1.4,2.7-0.6h0.3c1.2,0.8,1.3,1.8,0.3,3c-0.8,1.2-1.6,2.5-2.4,3.8
			c-0.8,1.3-1.6,2.7-2.4,4c-1,1.6-1.9,3.3-2.7,5c-0.8,1.7-1.6,3.5-2.4,5.3c-0.8,1.2-0.6,2,0.6,2.4c1,0.8,1.9,0.6,2.7-0.6v-0.3
			c0.8-1.6,1.6-3.2,2.4-5c0.8-1.7,1.7-3.3,2.7-5c1.6-2.8,3.2-5.3,4.8-7.5c0.8-1.2,1.7-1.4,2.7-0.6h0.3c1.4,0.8,1.5,1.8,0.3,3
			c-0.8,1-1.6,2.2-2.3,3.5c-0.7,1.3-1.5,2.5-2.3,3.8c-1,1.6-1.9,3.2-2.5,4.8c-0.7,1.6-1.5,3.2-2.3,4.8c-0.4,1.2-0.2,2,0.6,2.4
			c1.2,0.6,2.1,0.4,2.7-0.6v-0.3c0.8-1.6,1.6-3.2,2.4-4.7c0.8-1.5,1.6-3,2.4-4.6c0.8-1.2,1.5-2.3,2.3-3.5c0.7-1.1,1.4-2.3,2.3-3.5
			c0.8-1.2,1.7-1.4,2.7-0.6c1.2,0.6,1.4,1.6,0.6,3c-0.8,1-1.5,2.1-2.1,3.3c-0.6,1.2-1.3,2.3-2.1,3.3c-4.4,7.6-7.6,15.6-9.8,24
			c-2.1,8.4-3.1,17-3.1,25.8V173.3z M391.2,173.3h-20.4v-4.5c0-3.2,0.2-6.3,0.5-9.5c0.3-3.1,0.6-6.2,1-9.4
			c2.4-14.4,7.2-27.9,14.4-40.5c0.8-1.6,1.6-3,2.4-4.4c0.8-1.3,1.7-2.5,2.7-3.8c0.8-1.2,1.7-1.4,2.7-0.6h0.3c1.2,0.8,1.3,1.8,0.3,3
			c-0.8,1.2-1.6,2.5-2.4,3.8c-0.8,1.3-1.6,2.7-2.4,4c-1,1.6-1.9,3.3-2.7,5c-0.8,1.7-1.6,3.5-2.4,5.3c-0.8,1.2-0.6,2,0.6,2.4
			c1,0.8,1.9,0.6,2.7-0.6v-0.3c0.8-1.6,1.6-3.2,2.4-5c0.8-1.7,1.7-3.3,2.7-5c1.6-2.8,3.2-5.3,4.8-7.5c0.8-1.2,1.7-1.4,2.7-0.6h0.3
			c1.4,0.8,1.5,1.8,0.3,3c-0.8,1-1.6,2.2-2.3,3.5c-0.7,1.3-1.5,2.5-2.3,3.8c-1,1.6-1.9,3.2-2.5,4.8c-0.7,1.6-1.5,3.2-2.3,4.8
			c-0.4,1.2-0.2,2,0.6,2.4c1.2,0.6,2.1,0.4,2.7-0.6v-0.3c0.8-1.6,1.5-3.2,2.3-4.7c0.7-1.5,1.5-3,2.5-4.6c0.8-1.2,1.5-2.3,2.3-3.5
			c0.7-1.1,1.4-2.3,2.3-3.5c0.8-1.2,1.7-1.4,2.7-0.6c1.2,0.6,1.4,1.6,0.6,3c-0.8,1-1.5,2.1-2.1,3.3c-0.6,1.2-1.3,2.3-2.1,3.3
			c-4.4,7.6-7.6,15.6-9.8,24c-2.1,8.4-3.1,17-3.1,25.8V173.3z"/>
		<path class="st1" d="M622.8,207.2h5.1c-1.4,10.2-4.1,20-8.1,29.4c-0.2,0.4-0.3,0.8-0.3,1.2c-0.2,0.4-0.4,0.8-0.6,1.2
			c-4,9-9.1,17.4-15.3,25.2l12.9,12.6l-14.4,14.4l-12-12.3c-8,7.2-16.7,13.2-26.1,18c-2.8,1.6-5.7,3-8.7,4.2c-0.4,0.2-0.9,0.2-1.5,0
			c-0.6-0.2-1-0.5-1.2-0.9v-0.3c-0.2-0.4-0.2-0.9,0-1.5c0.2-0.6,0.6-1,1.2-1.2c2.8-1.2,5.6-2.5,8.4-3.9c3.4-1.8,6.8-3.8,10.2-6
			c0.4-0.2,0.6-0.5,0.8-1c0.1-0.5,0-0.9-0.2-1.3c-0.4-0.4-0.9-0.7-1.3-0.9c-0.5-0.2-1-0.2-1.4,0l-0.3,0.3c-3,2-6.2,3.9-9.6,5.7
			c-2.6,1.2-5.3,2.4-8.1,3.6c-0.6,0.2-1.2,0.2-1.6,0c-0.5-0.2-0.9-0.5-1.1-0.9v-0.3c-0.2-0.4-0.2-0.9,0-1.5c0.2-0.6,0.5-1,0.9-1.2
			c2.8-1,5.4-2.2,7.8-3.6c3.4-1.6,6.6-3.4,9.6-5.4c0.4-0.4,0.6-0.8,0.8-1.4c0.1-0.5,0-0.9-0.2-1.3c-0.2-0.4-0.6-0.7-1-0.9
			c-0.5-0.2-1-0.1-1.4,0.3h-0.3c-3,2-6.1,3.8-9.3,5.4c-2.4,1.2-4.8,2.3-7.2,3.3c-0.6,0.2-1.2,0.3-1.6,0.2c-0.5-0.1-0.9-0.5-1.1-1
			c-0.4-0.6-0.4-1.1-0.1-1.7c0.3-0.5,0.6-0.9,1-1.3c2.4-1,4.8-2.1,7.2-3.3c7.6-3.8,14.6-8.6,21-14.4l-22.8-22.8l14.1-14.1v-7.5
			v-12.9v-20.4h-20.1v20.4h-19.8V227l13.8,14.1l-13.8,13.8v54.9h-0.3l-21.9,21.9l-14.1-14.1l15.9-16.2v-26.1l-13.5,13.5l-14.1-14.4
			l27.6-27.6v-39.6h-20.1v-20.4h20.1v-20.1h20.4v20.1h19.8v-20.1H567v-20.1h20.4v20.1h20.1v20.1h-20.1v20.4h19.8H622.8z
			 M589.2,249.5c4.4-5.8,8.1-12.1,11.1-18.9c0.4-1,0.8-2,1.2-3H567L589.2,249.5z"/>
		<path class="st1" d="M642.9,270.5c-0.4-0.4-0.6-0.9-0.5-1.5c0.1-0.6,0.5-1,1.1-1.2c2-1.4,4.1-2.8,6.3-4.2
			c10.8-8,19.6-17.8,26.4-29.4v-0.3h-20.7v-20.1h20.7v-20.1h20.1v20.1h20.1v20.1h-20.1v52.5h-20.1v-20.1c-4.6,4.8-9.6,9.1-15,12.9
			c-2.4,1.8-4.9,3.5-7.5,5.1c-0.6,0.4-1.2,0.6-1.6,0.5c-0.5-0.1-0.9-0.3-1-0.8l-0.3-0.3c-0.2-0.4-0.3-0.9-0.1-1.5
			c0.1-0.6,0.3-1,0.8-1.2c2.6-1.6,5.1-3.3,7.5-5.1c3-2.2,5.9-4.5,8.7-6.9c0.4-0.4,0.6-0.8,0.6-1.3c0-0.5-0.1-0.8-0.3-1.1
			c-0.4-0.4-0.9-0.6-1.4-0.8c-0.5-0.1-1,0-1.3,0.2v0.3c-2.8,2.4-5.6,4.6-8.4,6.6c-2.4,1.8-4.8,3.4-7.2,4.8c-0.4,0.4-0.9,0.6-1.4,0.5
			c-0.5-0.1-1-0.3-1.3-0.8v-0.3c-0.4-0.4-0.5-0.9-0.3-1.5c0.2-0.6,0.5-1,0.9-1.2c2.4-1.4,4.7-2.9,6.9-4.5c2.8-2.2,5.5-4.5,8.1-6.9
			c0.4-0.2,0.6-0.5,0.6-1c0-0.5-0.1-0.9-0.3-1.4c-0.4-0.4-0.8-0.6-1.2-0.8c-0.4-0.1-0.9,0.1-1.5,0.5c-2.6,2.4-5.2,4.6-7.8,6.6
			c-2.2,1.4-4.4,2.8-6.6,4.2c-0.4,0.4-0.9,0.6-1.5,0.5c-0.6-0.1-1-0.3-1.2-0.8V270.5z M724.8,193.7l-14.4,14.1l-14.1-14.1l14.1-14.4
			L724.8,193.7z M696.3,259.7l14.4-14.1l14.1,14.1l-14.1,14.4L696.3,259.7z"/>
		<path class="st1" d="M786.6,246.8l15,15l-14.4,14.1l-29.4-29.1l14.4-14.4l3.6-3.6l-28.2-28.2l3.6-3.9l36-36
			c0.4-0.4,0.9-0.6,1.5-0.6c0.6,0,1.1,0.2,1.5,0.6c0.4,0.4,0.6,0.9,0.6,1.5c0,0.6-0.2,1.1-0.6,1.5l-11.7,11.4
			c-0.4,0.4-0.6,0.9-0.6,1.5c0,0.6,0.2,1.1,0.6,1.5c0.4,0.4,0.9,0.6,1.5,0.6c0.6,0,1.1-0.2,1.5-0.6l11.4-11.7
			c0.4-0.4,0.9-0.6,1.5-0.6c0.6,0,1.1,0.2,1.5,0.6c0.4,0.4,0.6,0.9,0.6,1.5c0,0.6-0.2,1.1-0.6,1.5l-11.7,11.7
			c-0.4,0.4-0.6,0.9-0.6,1.4c0,0.5,0.2,1,0.6,1.3c0.4,0.4,0.9,0.6,1.5,0.6c0.6,0,1-0.2,1.2-0.6l11.7-11.7c0.4-0.4,0.9-0.6,1.5-0.6
			s1.1,0.2,1.5,0.6c0.4,0.4,0.6,0.9,0.6,1.5c0,0.6-0.2,1.1-0.6,1.5l-25.5,25.5l15.9,16.2l12.3,12L786.6,246.8z M759.6,303.8
			l27.6-27.6l14.4,14.1l-27.9,27.9L759.6,303.8z M918.6,278.3c0.4,0.4,0.6,0.9,0.6,1.5c0,0.6-0.2,1.1-0.6,1.5
			c-0.4,0.4-0.9,0.6-1.5,0.6H801.6v-20.1h20.1v-59.4h20.4v-20.1h48.6v5.1v74.4h26.4c0.6,0,1.1,0.2,1.5,0.6c0.4,0.4,0.6,0.9,0.6,1.5
			c0,0.4-0.2,0.8-0.6,1.2c-0.4,0.4-0.9,0.6-1.5,0.6h-16.5c-0.6,0-1.1,0.2-1.5,0.6c-0.4,0.4-0.6,0.9-0.6,1.5c0,0.6,0.2,1,0.6,1.4
			c0.4,0.3,0.9,0.6,1.5,0.8h16.5c0.6,0,1.1,0.2,1.5,0.6c0.4,0.4,0.6,0.8,0.6,1.2c0,0.6-0.2,1.1-0.6,1.5c-0.4,0.4-0.9,0.6-1.5,0.6
			h-16.5c-0.6,0-1.1,0.2-1.5,0.6c-0.4,0.4-0.6,0.9-0.6,1.5c0,0.4,0.2,0.8,0.6,1.2c0.4,0.4,0.9,0.6,1.5,0.6h16.5
			C917.7,277.7,918.2,277.9,918.6,278.3z M842.1,261.8h28.5v-15.3l-14.1,14.4l-14.4-14.4l14.4-14.1l14.1,14.1V218l-14.1,14.1
			L842.1,218l14.4-14.4l14.1,14.4v-15.6h-28.5V261.8z"/>
		<path class="st1" d="M991.5,165.8c-1.2-0.8-1.4-1.8-0.6-3c1.4-2,2.8-4.2,4.2-6.6c8.8-15.4,13.2-32,13.2-49.8v-4.2h20.1v4.5
			c0,3.2-0.1,6.4-0.3,9.5c-0.2,3.1-0.6,6.3-1.2,9.4c-1,7.2-2.8,14.2-5.3,20.9c-2.5,6.7-5.5,13.3-9.2,19.6c-1.4,2.6-3.1,5.3-5.1,8.1
			c-0.8,1.2-1.7,1.4-2.7,0.6c-1-0.6-1.2-1.6-0.6-3c1-1.2,1.8-2.4,2.5-3.8c0.7-1.3,1.4-2.6,2.3-4c2.2-3.4,4-6.8,5.4-10.2
			c0.4-1.2,0.1-2-0.9-2.4c-1-0.8-1.9-0.6-2.7,0.6v0.3c-0.8,1.6-1.6,3.3-2.4,5c-0.8,1.7-1.7,3.4-2.7,5c-1.6,2.8-3.2,5.3-4.8,7.5
			c-0.8,1.2-1.7,1.4-2.7,0.6c-1.2-0.8-1.4-1.8-0.6-3c0.8-1,1.5-2.1,2.3-3.5c0.7-1.3,1.4-2.5,2.3-3.8c1-1.6,1.9-3.2,2.7-4.8
			c0.8-1.6,1.5-3.2,2.1-4.8c0.8-1.2,0.6-2-0.6-2.4c-1-0.8-1.9-0.6-2.7,0.6v0.3c-0.8,1.6-1.6,3.2-2.3,4.7c-0.7,1.5-1.6,3.1-2.5,4.6
			c-0.8,1.2-1.5,2.4-2.1,3.5c-0.6,1.1-1.3,2.3-2.1,3.5C993.7,166.2,992.7,166.4,991.5,165.8z M1048.8,102.2h20.1v4.5
			c0,3.2-0.1,6.4-0.3,9.5c-0.2,3.1-0.6,6.3-1.2,9.4c-1,7.2-2.8,14.2-5.3,20.9c-2.5,6.7-5.5,13.3-9.2,19.6c-1.4,2.6-3.1,5.3-5.1,8.1
			c-0.8,1.2-1.7,1.4-2.7,0.6c-1-0.6-1.2-1.6-0.6-3c1-1.2,1.8-2.4,2.5-3.8c0.7-1.3,1.4-2.6,2.3-4c2.2-3.4,4-6.8,5.4-10.2
			c0.4-1.2,0.1-2-0.9-2.4c-1-0.8-1.9-0.6-2.7,0.6v0.3c-0.8,1.6-1.6,3.3-2.4,5c-0.8,1.7-1.7,3.4-2.7,5c-1.6,2.8-3.2,5.3-4.8,7.5
			c-0.8,1.2-1.7,1.4-2.7,0.6c-1.2-0.8-1.4-1.8-0.6-3c0.8-1,1.5-2.1,2.3-3.5c0.7-1.3,1.4-2.5,2.3-3.8c1-1.6,1.9-3.2,2.7-4.8
			c0.8-1.6,1.5-3.2,2.1-4.8c0.8-1.2,0.6-2-0.6-2.4c-1-0.8-1.9-0.6-2.7,0.6v0.3c-0.8,1.6-1.6,3.2-2.3,4.7c-0.7,1.5-1.6,3.1-2.5,4.6
			c-0.8,1.2-1.5,2.4-2.1,3.5c-0.6,1.1-1.3,2.3-2.1,3.5c-0.8,1-1.8,1.2-3,0.6c-1.2-0.8-1.4-1.8-0.6-3c1.4-2,2.8-4.2,4.2-6.6
			c8.8-15.4,13.2-32,13.2-49.8V102.2z"/>
	</g>
	<g class="st0">
		<path class="st2" d="M345.7,168.3h-20.4v-4.5c0-3.2,0.2-6.3,0.5-9.5c0.3-3.1,0.6-6.2,1-9.4c2.4-14.4,7.2-27.9,14.4-40.5
			c0.8-1.6,1.6-3,2.4-4.4c0.8-1.3,1.7-2.5,2.7-3.8c0.8-1.2,1.7-1.4,2.7-0.6h0.3c1.2,0.8,1.3,1.8,0.3,3c-0.8,1.2-1.6,2.5-2.4,3.8
			c-0.8,1.3-1.6,2.7-2.4,4c-1,1.6-1.9,3.3-2.7,5c-0.8,1.7-1.6,3.5-2.4,5.3c-0.8,1.2-0.6,2,0.6,2.4c1,0.8,1.9,0.6,2.7-0.6v-0.3
			c0.8-1.6,1.6-3.2,2.4-5c0.8-1.7,1.7-3.3,2.7-5c1.6-2.8,3.2-5.3,4.8-7.5c0.8-1.2,1.7-1.4,2.7-0.6h0.3c1.4,0.8,1.5,1.8,0.3,3
			c-0.8,1-1.6,2.2-2.3,3.5c-0.7,1.3-1.5,2.5-2.3,3.8c-1,1.6-1.9,3.2-2.5,4.8c-0.7,1.6-1.5,3.2-2.3,4.8c-0.4,1.2-0.2,2,0.6,2.4
			c1.2,0.6,2.1,0.4,2.7-0.6v-0.3c0.8-1.6,1.6-3.2,2.4-4.7c0.8-1.5,1.6-3,2.4-4.6c0.8-1.2,1.5-2.3,2.3-3.5c0.7-1.1,1.4-2.3,2.3-3.5
			c0.8-1.2,1.7-1.4,2.7-0.6c1.2,0.6,1.4,1.6,0.6,3c-0.8,1-1.5,2.1-2.1,3.3c-0.6,1.2-1.3,2.3-2.1,3.3c-4.4,7.6-7.6,15.6-9.8,24
			c-2.1,8.4-3.1,17-3.1,25.8V168.3z M386.2,168.3h-20.4v-4.5c0-3.2,0.2-6.3,0.5-9.5c0.3-3.1,0.6-6.2,1-9.4
			c2.4-14.4,7.2-27.9,14.4-40.5c0.8-1.6,1.6-3,2.4-4.4c0.8-1.3,1.7-2.5,2.7-3.8c0.8-1.2,1.7-1.4,2.7-0.6h0.3c1.2,0.8,1.3,1.8,0.3,3
			c-0.8,1.2-1.6,2.5-2.4,3.8c-0.8,1.3-1.6,2.7-2.4,4c-1,1.6-1.9,3.3-2.7,5c-0.8,1.7-1.6,3.5-2.4,5.3c-0.8,1.2-0.6,2,0.6,2.4
			c1,0.8,1.9,0.6,2.7-0.6v-0.3c0.8-1.6,1.6-3.2,2.4-5c0.8-1.7,1.7-3.3,2.7-5c1.6-2.8,3.2-5.3,4.8-7.5c0.8-1.2,1.7-1.4,2.7-0.6h0.3
			c1.4,0.8,1.5,1.8,0.3,3c-0.8,1-1.6,2.2-2.3,3.5c-0.7,1.3-1.5,2.5-2.3,3.8c-1,1.6-1.9,3.2-2.5,4.8c-0.7,1.6-1.5,3.2-2.3,4.8
			c-0.4,1.2-0.2,2,0.6,2.4c1.2,0.6,2.1,0.4,2.7-0.6v-0.3c0.8-1.6,1.5-3.2,2.3-4.7c0.7-1.5,1.5-3,2.5-4.6c0.8-1.2,1.5-2.3,2.3-3.5
			c0.7-1.1,1.4-2.3,2.3-3.5c0.8-1.2,1.7-1.4,2.7-0.6c1.2,0.6,1.4,1.6,0.6,3c-0.8,1-1.5,2.1-2.1,3.3c-0.6,1.2-1.3,2.3-2.1,3.3
			c-4.4,7.6-7.6,15.6-9.8,24c-2.1,8.4-3.1,17-3.1,25.8V168.3z"/>
		<path class="st2" d="M617.8,202.2h5.1c-1.4,10.2-4.1,20-8.1,29.4c-0.2,0.4-0.3,0.8-0.3,1.2c-0.2,0.4-0.4,0.8-0.6,1.2
			c-4,9-9.1,17.4-15.3,25.2l12.9,12.6l-14.4,14.4l-12-12.3c-8,7.2-16.7,13.2-26.1,18c-2.8,1.6-5.7,3-8.7,4.2c-0.4,0.2-0.9,0.2-1.5,0
			c-0.6-0.2-1-0.5-1.2-0.9v-0.3c-0.2-0.4-0.2-0.9,0-1.5c0.2-0.6,0.6-1,1.2-1.2c2.8-1.2,5.6-2.5,8.4-3.9c3.4-1.8,6.8-3.8,10.2-6
			c0.4-0.2,0.6-0.5,0.8-1c0.1-0.5,0-0.9-0.2-1.3c-0.4-0.4-0.9-0.7-1.3-0.9c-0.5-0.2-1-0.2-1.4,0l-0.3,0.3c-3,2-6.2,3.9-9.6,5.7
			c-2.6,1.2-5.3,2.4-8.1,3.6c-0.6,0.2-1.2,0.2-1.6,0c-0.5-0.2-0.9-0.5-1.1-0.9v-0.3c-0.2-0.4-0.2-0.9,0-1.5c0.2-0.6,0.5-1,0.9-1.2
			c2.8-1,5.4-2.2,7.8-3.6c3.4-1.6,6.6-3.4,9.6-5.4c0.4-0.4,0.6-0.8,0.8-1.4c0.1-0.5,0-0.9-0.2-1.3c-0.2-0.4-0.6-0.7-1-0.9
			c-0.5-0.2-1-0.1-1.4,0.3h-0.3c-3,2-6.1,3.8-9.3,5.4c-2.4,1.2-4.8,2.3-7.2,3.3c-0.6,0.2-1.2,0.3-1.6,0.2c-0.5-0.1-0.9-0.5-1.1-1
			c-0.4-0.6-0.4-1.1-0.1-1.7c0.3-0.5,0.6-0.9,1-1.3c2.4-1,4.8-2.1,7.2-3.3c7.6-3.8,14.6-8.6,21-14.4l-22.8-22.8l14.1-14.1v-7.5
			v-12.9v-20.4h-20.1v20.4h-19.8V222l13.8,14.1l-13.8,13.8v54.9h-0.3l-21.9,21.9l-14.1-14.1l15.9-16.2v-26.1l-13.5,13.5l-14.1-14.4
			l27.6-27.6v-39.6h-20.1v-20.4h20.1v-20.1h20.4v20.1h19.8v-20.1H562v-20.1h20.4v20.1h20.1v20.1h-20.1v20.4h19.8H617.8z
			 M584.2,244.5c4.4-5.8,8.1-12.1,11.1-18.9c0.4-1,0.8-2,1.2-3H562L584.2,244.5z"/>
		<path class="st2" d="M637.9,265.5c-0.4-0.4-0.6-0.9-0.5-1.5c0.1-0.6,0.5-1,1.1-1.2c2-1.4,4.1-2.8,6.3-4.2
			c10.8-8,19.6-17.8,26.4-29.4v-0.3h-20.7v-20.1h20.7v-20.1h20.1v20.1h20.1v20.1h-20.1v52.5h-20.1v-20.1c-4.6,4.8-9.6,9.1-15,12.9
			c-2.4,1.8-4.9,3.5-7.5,5.1c-0.6,0.4-1.2,0.6-1.6,0.5c-0.5-0.1-0.9-0.3-1-0.8l-0.3-0.3c-0.2-0.4-0.3-0.9-0.1-1.5
			c0.1-0.6,0.3-1,0.8-1.2c2.6-1.6,5.1-3.3,7.5-5.1c3-2.2,5.9-4.5,8.7-6.9c0.4-0.4,0.6-0.8,0.6-1.3c0-0.5-0.1-0.8-0.3-1.1
			c-0.4-0.4-0.9-0.6-1.4-0.8c-0.5-0.1-1,0-1.3,0.2v0.3c-2.8,2.4-5.6,4.6-8.4,6.6c-2.4,1.8-4.8,3.4-7.2,4.8c-0.4,0.4-0.9,0.6-1.4,0.5
			c-0.5-0.1-1-0.3-1.3-0.8v-0.3c-0.4-0.4-0.5-0.9-0.3-1.5c0.2-0.6,0.5-1,0.9-1.2c2.4-1.4,4.7-2.9,6.9-4.5c2.8-2.2,5.5-4.5,8.1-6.9
			c0.4-0.2,0.6-0.5,0.6-1c0-0.5-0.1-0.9-0.3-1.4c-0.4-0.4-0.8-0.6-1.2-0.8c-0.4-0.1-0.9,0.1-1.5,0.5c-2.6,2.4-5.2,4.6-7.8,6.6
			c-2.2,1.4-4.4,2.8-6.6,4.2c-0.4,0.4-0.9,0.6-1.5,0.5c-0.6-0.1-1-0.3-1.2-0.8V265.5z M719.8,188.7l-14.4,14.1l-14.1-14.1l14.1-14.4
			L719.8,188.7z M691.3,254.7l14.4-14.1l14.1,14.1l-14.1,14.4L691.3,254.7z"/>
		<path class="st2" d="M781.6,241.8l15,15l-14.4,14.1l-29.4-29.1l14.4-14.4l3.6-3.6l-28.2-28.2l3.6-3.9l36-36
			c0.4-0.4,0.9-0.6,1.5-0.6c0.6,0,1.1,0.2,1.5,0.6c0.4,0.4,0.6,0.9,0.6,1.5c0,0.6-0.2,1.1-0.6,1.5l-11.7,11.4
			c-0.4,0.4-0.6,0.9-0.6,1.5c0,0.6,0.2,1.1,0.6,1.5c0.4,0.4,0.9,0.6,1.5,0.6c0.6,0,1.1-0.2,1.5-0.6l11.4-11.7
			c0.4-0.4,0.9-0.6,1.5-0.6c0.6,0,1.1,0.2,1.5,0.6c0.4,0.4,0.6,0.9,0.6,1.5c0,0.6-0.2,1.1-0.6,1.5l-11.7,11.7
			c-0.4,0.4-0.6,0.9-0.6,1.4c0,0.5,0.2,1,0.6,1.3c0.4,0.4,0.9,0.6,1.5,0.6c0.6,0,1-0.2,1.2-0.6l11.7-11.7c0.4-0.4,0.9-0.6,1.5-0.6
			s1.1,0.2,1.5,0.6c0.4,0.4,0.6,0.9,0.6,1.5c0,0.6-0.2,1.1-0.6,1.5l-25.5,25.5l15.9,16.2l12.3,12L781.6,241.8z M754.6,298.8
			l27.6-27.6l14.4,14.1l-27.9,27.9L754.6,298.8z M913.6,273.3c0.4,0.4,0.6,0.9,0.6,1.5c0,0.6-0.2,1.1-0.6,1.5
			c-0.4,0.4-0.9,0.6-1.5,0.6H796.6v-20.1h20.1v-59.4h20.4v-20.1h48.6v5.1v74.4h26.4c0.6,0,1.1,0.2,1.5,0.6c0.4,0.4,0.6,0.9,0.6,1.5
			c0,0.4-0.2,0.8-0.6,1.2c-0.4,0.4-0.9,0.6-1.5,0.6h-16.5c-0.6,0-1.1,0.2-1.5,0.6c-0.4,0.4-0.6,0.9-0.6,1.5c0,0.6,0.2,1,0.6,1.4
			c0.4,0.3,0.9,0.6,1.5,0.8h16.5c0.6,0,1.1,0.2,1.5,0.6c0.4,0.4,0.6,0.8,0.6,1.2c0,0.6-0.2,1.1-0.6,1.5c-0.4,0.4-0.9,0.6-1.5,0.6
			h-16.5c-0.6,0-1.1,0.2-1.5,0.6c-0.4,0.4-0.6,0.9-0.6,1.5c0,0.4,0.2,0.8,0.6,1.2c0.4,0.4,0.9,0.6,1.5,0.6h16.5
			C912.7,272.7,913.2,272.9,913.6,273.3z M837.1,256.8h28.5v-15.3l-14.1,14.4l-14.4-14.4l14.4-14.1l14.1,14.1V213l-14.1,14.1
			L837.1,213l14.4-14.4l14.1,14.4v-15.6h-28.5V256.8z"/>
		<path class="st2" d="M986.5,160.8c-1.2-0.8-1.4-1.8-0.6-3c1.4-2,2.8-4.2,4.2-6.6c8.8-15.4,13.2-32,13.2-49.8v-4.2h20.1v4.5
			c0,3.2-0.1,6.4-0.3,9.5c-0.2,3.1-0.6,6.3-1.2,9.4c-1,7.2-2.8,14.2-5.3,20.9c-2.5,6.7-5.5,13.3-9.2,19.6c-1.4,2.6-3.1,5.3-5.1,8.1
			c-0.8,1.2-1.7,1.4-2.7,0.6c-1-0.6-1.2-1.6-0.6-3c1-1.2,1.8-2.4,2.5-3.8c0.7-1.3,1.4-2.6,2.3-4c2.2-3.4,4-6.8,5.4-10.2
			c0.4-1.2,0.1-2-0.9-2.4c-1-0.8-1.9-0.6-2.7,0.6v0.3c-0.8,1.6-1.6,3.3-2.4,5c-0.8,1.7-1.7,3.4-2.7,5c-1.6,2.8-3.2,5.3-4.8,7.5
			c-0.8,1.2-1.7,1.4-2.7,0.6c-1.2-0.8-1.4-1.8-0.6-3c0.8-1,1.5-2.1,2.3-3.5c0.7-1.3,1.4-2.5,2.3-3.8c1-1.6,1.9-3.2,2.7-4.8
			c0.8-1.6,1.5-3.2,2.1-4.8c0.8-1.2,0.6-2-0.6-2.4c-1-0.8-1.9-0.6-2.7,0.6v0.3c-0.8,1.6-1.6,3.2-2.3,4.7c-0.7,1.5-1.6,3.1-2.5,4.6
			c-0.8,1.2-1.5,2.4-2.1,3.5c-0.6,1.1-1.3,2.3-2.1,3.5C988.7,161.2,987.7,161.4,986.5,160.8z M1043.8,97.2h20.1v4.5
			c0,3.2-0.1,6.4-0.3,9.5c-0.2,3.1-0.6,6.3-1.2,9.4c-1,7.2-2.8,14.2-5.3,20.9c-2.5,6.7-5.5,13.3-9.2,19.6c-1.4,2.6-3.1,5.3-5.1,8.1
			c-0.8,1.2-1.7,1.4-2.7,0.6c-1-0.6-1.2-1.6-0.6-3c1-1.2,1.8-2.4,2.5-3.8c0.7-1.3,1.4-2.6,2.3-4c2.2-3.4,4-6.8,5.4-10.2
			c0.4-1.2,0.1-2-0.9-2.4c-1-0.8-1.9-0.6-2.7,0.6v0.3c-0.8,1.6-1.6,3.3-2.4,5c-0.8,1.7-1.7,3.4-2.7,5c-1.6,2.8-3.2,5.3-4.8,7.5
			c-0.8,1.2-1.7,1.4-2.7,0.6c-1.2-0.8-1.4-1.8-0.6-3c0.8-1,1.5-2.1,2.3-3.5c0.7-1.3,1.4-2.5,2.3-3.8c1-1.6,1.9-3.2,2.7-4.8
			c0.8-1.6,1.5-3.2,2.1-4.8c0.8-1.2,0.6-2-0.6-2.4c-1-0.8-1.9-0.6-2.7,0.6v0.3c-0.8,1.6-1.6,3.2-2.3,4.7c-0.7,1.5-1.6,3.1-2.5,4.6
			c-0.8,1.2-1.5,2.4-2.1,3.5c-0.6,1.1-1.3,2.3-2.1,3.5c-0.8,1-1.8,1.2-3,0.6c-1.2-0.8-1.4-1.8-0.6-3c1.4-2,2.8-4.2,4.2-6.6
			c8.8-15.4,13.2-32,13.2-49.8V97.2z"/>
	</g>
	<g class="st0">
		<path class="st2" d="M602.7,406.3h2.7v2.7h-2.7V406.3z M608.1,406.3h2.7v2.7h-2.7V406.3z M608.1,409h2.7v2.7h-2.7V409z
			 M610.8,387.5h2.7v2.7h-2.7V387.5z M610.8,392.9h2.7v2.7h-2.7V392.9z M610.8,395.6h2.7v2.7h-2.7V395.6z M610.8,398.3h2.7v2.7h-2.7
			V398.3z M610.8,409h2.7v2.7h-2.7V409z M613.5,392.9h2.7v2.7h-2.7V392.9z M613.5,398.3h2.7v2.7h-2.7V398.3z M613.5,403.7h2.7v2.7
			h-2.7V403.7z M613.5,409h2.7v2.7h-2.7V409z M616.2,387.5h2.7v2.7h-2.7V387.5z M616.2,392.9h2.7v2.7h-2.7V392.9z M616.2,395.6h2.7
			v2.7h-2.7V395.6z M616.2,398.3h2.7v2.7h-2.7V398.3z M616.2,409h2.7v2.7h-2.7V409z M618.8,406.3h2.7v2.7h-2.7V406.3z M618.8,409
			h2.7v2.7h-2.7V409z M624.2,406.3h2.7v2.7h-2.7V406.3z"/>
		<path class="st2" d="M632.3,392.9h2.7v2.7h-2.7V392.9z M632.3,406.3h2.7v2.7h-2.7V406.3z M635,384.8h2.7v2.7H635V384.8z
			 M635,390.2h2.7v2.7H635V390.2z M637.7,382.1h2.7v2.7h-2.7V382.1z M637.7,384.8h2.7v2.7h-2.7V384.8z M637.7,387.5h2.7v2.7h-2.7
			V387.5z M637.7,390.2h2.7v2.7h-2.7V390.2z M637.7,392.9h2.7v2.7h-2.7V392.9z M637.7,406.3h2.7v2.7h-2.7V406.3z M637.7,409h2.7v2.7
			h-2.7V409z M640.4,384.8h2.7v2.7h-2.7V384.8z M640.4,390.2h2.7v2.7h-2.7V390.2z M640.4,409h2.7v2.7h-2.7V409z M643.1,403.7h2.7
			v2.7h-2.7V403.7z M643.1,409h2.7v2.7h-2.7V409z M645.8,382.1h2.7v2.7h-2.7V382.1z M645.8,384.8h2.7v2.7h-2.7V384.8z M645.8,387.5
			h2.7v2.7h-2.7V387.5z M645.8,390.2h2.7v2.7h-2.7V390.2z M645.8,392.9h2.7v2.7h-2.7V392.9z M645.8,395.6h2.7v2.7h-2.7V395.6z
			 M645.8,398.3h2.7v2.7h-2.7V398.3z M645.8,409h2.7v2.7h-2.7V409z M648.5,382.1h2.7v2.7h-2.7V382.1z M648.5,387.5h2.7v2.7h-2.7
			V387.5z M648.5,392.9h2.7v2.7h-2.7V392.9z M648.5,398.3h2.7v2.7h-2.7V398.3z M648.5,406.3h2.7v2.7h-2.7V406.3z M648.5,409h2.7v2.7
			h-2.7V409z M651.2,382.1h2.7v2.7h-2.7V382.1z M651.2,384.8h2.7v2.7h-2.7V384.8z M651.2,387.5h2.7v2.7h-2.7V387.5z M651.2,390.2
			h2.7v2.7h-2.7V390.2z M651.2,392.9h2.7v2.7h-2.7V392.9z M651.2,395.6h2.7v2.7h-2.7V395.6z M651.2,398.3h2.7v2.7h-2.7V398.3z
			 M653.8,406.3h2.7v2.7h-2.7V406.3z"/>
		<path class="st2" d="M661.9,387.5h2.7v2.7h-2.7V387.5z M661.9,392.9h2.7v2.7h-2.7V392.9z M661.9,398.3h2.7v2.7h-2.7V398.3z
			 M664.6,384.8h2.7v2.7h-2.7V384.8z M664.6,387.5h2.7v2.7h-2.7V387.5z M664.6,390.2h2.7v2.7h-2.7V390.2z M664.6,392.9h2.7v2.7h-2.7
			V392.9z M664.6,395.6h2.7v2.7h-2.7V395.6z M664.6,398.3h2.7v2.7h-2.7V398.3z M667.3,387.5h2.7v2.7h-2.7V387.5z M667.3,392.9h2.7
			v2.7h-2.7V392.9z M670,398.3h2.7v2.7H670V398.3z M670,401h2.7v2.7H670V401z M670,403.7h2.7v2.7H670V403.7z M670,406.3h2.7v2.7H670
			V406.3z M670,409h2.7v2.7H670V409z M672.7,398.3h2.7v2.7h-2.7V398.3z M675.4,382.1h2.7v2.7h-2.7V382.1z M675.4,387.5h2.7v2.7h-2.7
			V387.5z M675.4,390.2h2.7v2.7h-2.7V390.2z M675.4,392.9h2.7v2.7h-2.7V392.9z M675.4,398.3h2.7v2.7h-2.7V398.3z M675.4,403.7h2.7
			v2.7h-2.7V403.7z M675.4,406.3h2.7v2.7h-2.7V406.3z M675.4,409h2.7v2.7h-2.7V409z M678.1,376.7h2.7v2.7h-2.7V376.7z M678.1,382.1
			h2.7v2.7h-2.7V382.1z M678.1,387.5h2.7v2.7h-2.7V387.5z M678.1,392.9h2.7v2.7h-2.7V392.9z M678.1,398.3h2.7v2.7h-2.7V398.3z
			 M678.1,403.7h2.7v2.7h-2.7V403.7z M678.1,409h2.7v2.7h-2.7V409z M680.8,382.1h2.7v2.7h-2.7V382.1z M680.8,387.5h2.7v2.7h-2.7
			V387.5z M680.8,390.2h2.7v2.7h-2.7V390.2z M680.8,392.9h2.7v2.7h-2.7V392.9z M680.8,398.3h2.7v2.7h-2.7V398.3z M680.8,403.7h2.7
			v2.7h-2.7V403.7z M680.8,406.3h2.7v2.7h-2.7V406.3z M680.8,409h2.7v2.7h-2.7V409z M683.5,398.3h2.7v2.7h-2.7V398.3z M686.2,398.3
			h2.7v2.7h-2.7V398.3z M686.2,401h2.7v2.7h-2.7V401z M686.2,403.7h2.7v2.7h-2.7V403.7z M686.2,406.3h2.7v2.7h-2.7V406.3z
			 M686.2,409h2.7v2.7h-2.7V409z"/>
		<path class="st2" d="M694.2,409h2.7v2.7h-2.7V409z M699.6,398.3h2.7v2.7h-2.7V398.3z M699.6,401h2.7v2.7h-2.7V401z M699.6,403.7
			h2.7v2.7h-2.7V403.7z M699.6,409h2.7v2.7h-2.7V409z M702.3,390.2h2.7v2.7h-2.7V390.2z M702.3,392.9h2.7v2.7h-2.7V392.9z
			 M702.3,395.6h2.7v2.7h-2.7V395.6z M702.3,398.3h2.7v2.7h-2.7V398.3z M702.3,403.7h2.7v2.7h-2.7V403.7z M705,392.9h2.7v2.7H705
			V392.9z M705,398.3h2.7v2.7H705V398.3z M705,401h2.7v2.7H705V401z M705,403.7h2.7v2.7H705V403.7z M705,409h2.7v2.7H705V409z
			 M710.4,409h2.7v2.7h-2.7V409z"/>
		<path class="st2" d="M718.5,406.3h2.7v2.7h-2.7V406.3z M721.2,409h2.7v2.7h-2.7V409z M723.8,406.3h2.7v2.7h-2.7V406.3z M723.8,409
			h2.7v2.7h-2.7V409z M729.2,406.3h2.7v2.7h-2.7V406.3z"/>
		<path class="st2" d="M737.3,382.1h2.7v2.7h-2.7V382.1z M737.3,384.8h2.7v2.7h-2.7V384.8z M737.3,387.5h2.7v2.7h-2.7V387.5z
			 M740,376.7h2.7v2.7H740V376.7z M740,382.1h2.7v2.7H740V382.1z M740,387.5h2.7v2.7H740V387.5z M740,392.9h2.7v2.7H740V392.9z
			 M740,398.3h2.7v2.7H740V398.3z M740,403.7h2.7v2.7H740V403.7z M740,409h2.7v2.7H740V409z M742.7,374h2.7v2.7h-2.7V374z
			 M742.7,376.7h2.7v2.7h-2.7V376.7z M742.7,379.4h2.7v2.7h-2.7V379.4z M742.7,382.1h2.7v2.7h-2.7V382.1z M742.7,384.8h2.7v2.7h-2.7
			V384.8z M742.7,387.5h2.7v2.7h-2.7V387.5z M742.7,390.2h2.7v2.7h-2.7V390.2z M742.7,392.9h2.7v2.7h-2.7V392.9z M742.7,395.6h2.7
			v2.7h-2.7V395.6z M742.7,398.3h2.7v2.7h-2.7V398.3z M742.7,401h2.7v2.7h-2.7V401z M742.7,403.7h2.7v2.7h-2.7V403.7z M742.7,406.3
			h2.7v2.7h-2.7V406.3z M742.7,409h2.7v2.7h-2.7V409z M745.4,376.7h2.7v2.7h-2.7V376.7z M745.4,382.1h2.7v2.7h-2.7V382.1z
			 M745.4,387.5h2.7v2.7h-2.7V387.5z M745.4,392.9h2.7v2.7h-2.7V392.9z M745.4,398.3h2.7v2.7h-2.7V398.3z M745.4,403.7h2.7v2.7h-2.7
			V403.7z M748.1,382.1h2.7v2.7h-2.7V382.1z M748.1,384.8h2.7v2.7h-2.7V384.8z M748.1,387.5h2.7v2.7h-2.7V387.5z M748.1,392.9h2.7
			v2.7h-2.7V392.9z M748.1,395.6h2.7v2.7h-2.7V395.6z M748.1,398.3h2.7v2.7h-2.7V398.3z M748.1,401h2.7v2.7h-2.7V401z M748.1,403.7
			h2.7v2.7h-2.7V403.7z M750.8,398.3h2.7v2.7h-2.7V398.3z"/>
		<path class="st2" d="M758.8,384.8h2.7v2.7h-2.7V384.8z M764.2,382.1h2.7v2.7h-2.7V382.1z M764.2,384.8h2.7v2.7h-2.7V384.8z
			 M764.2,387.5h2.7v2.7h-2.7V387.5z M764.2,390.2h2.7v2.7h-2.7V390.2z M766.9,384.8h2.7v2.7h-2.7V384.8z M772.3,379.4h2.7v2.7h-2.7
			V379.4z M772.3,384.8h2.7v2.7h-2.7V384.8z M772.3,390.2h2.7v2.7h-2.7V390.2z M772.3,395.6h2.7v2.7h-2.7V395.6z M772.3,398.3h2.7
			v2.7h-2.7V398.3z M772.3,401h2.7v2.7h-2.7V401z M772.3,403.7h2.7v2.7h-2.7V403.7z M772.3,406.3h2.7v2.7h-2.7V406.3z M772.3,409
			h2.7v2.7h-2.7V409z M775,376.7h2.7v2.7H775V376.7z M775,379.4h2.7v2.7H775V379.4z M775,382.1h2.7v2.7H775V382.1z M775,384.8h2.7
			v2.7H775V384.8z M775,387.5h2.7v2.7H775V387.5z M775,390.2h2.7v2.7H775V390.2z M775,395.6h2.7v2.7H775V395.6z M775,401h2.7v2.7
			H775V401z M775,406.3h2.7v2.7H775V406.3z M777.7,379.4h2.7v2.7h-2.7V379.4z M777.7,384.8h2.7v2.7h-2.7V384.8z M777.7,390.2h2.7
			v2.7h-2.7V390.2z M777.7,395.6h2.7v2.7h-2.7V395.6z M777.7,398.3h2.7v2.7h-2.7V398.3z M777.7,401h2.7v2.7h-2.7V401z M777.7,403.7
			h2.7v2.7h-2.7V403.7z M777.7,406.3h2.7v2.7h-2.7V406.3z M777.7,409h2.7v2.7h-2.7V409z"/>
	</g>
	<g id="_编组_3" class="st3">
		<path id="_路径_20" class="st4" d="M341.8,115c-1.3-1-2.4-0.8-3.4,0.8c-1,1.5-2,3-2.9,4.4s-1.8,2.9-2.9,4.4c-1,2-2,4-3,5.9
			s-2,3.9-3.1,5.9v0.4c-0.8,1.3-1.9,1.5-3.4,0.8c-1-0.5-1.3-1.5-0.8-3.1c1-2,2-4,2.9-6.1c0.9-2.1,2-4.2,3.2-6.1c1-1.5,2-3.1,2.9-4.8
			c0.8-1.5,1.8-3,2.9-4.4c1.5-1.5,1.4-2.8-0.4-3.8h-0.4c-1.3-1-2.4-0.8-3.4,0.8c-2.2,3.1-4.3,6.3-6.1,9.5c-1.3,2-2.4,4.1-3.4,6.3
			c-1,2.2-2,4.3-3,6.3v0.4c-1,1.5-2.2,1.8-3.4,0.8c-1.5-0.5-1.8-1.5-0.8-3.1c1-2.3,2-4.5,3-6.7s2.2-4.3,3.4-6.3c1-1.8,2-3.5,3-5.2
			s2-3.2,3-4.8c1.3-1.5,1.1-2.8-0.4-3.8H325c-1.3-1-2.4-0.8-3.4,0.8c-1.3,1.5-2.4,3.1-3.4,4.8c-1,1.7-2,3.5-3,5.5
			c-9.1,15.9-15.3,33.4-18.3,51.5c-0.5,4.1-1,8.1-1.3,12c-0.4,3.9-0.6,7.9-0.6,12v5.7h26v-5.3c0-11.1,1.3-22.1,4-32.8
			s6.9-21,12.4-30.5c1-1.3,1.9-2.7,2.7-4.2c0.7-1.5,1.6-2.9,2.7-4.2C343.5,117.1,343.3,115.8,341.8,115z"/>
		<path id="_路径_21" class="st4" d="M393.3,115c-1.3-1-2.4-0.8-3.4,0.8c-1,1.5-2,3-2.9,4.4s-1.8,2.9-2.9,4.4
			c-1.2,1.9-2.3,3.9-3.2,5.9c-0.9,1.9-1.8,3.9-2.9,5.9v0.4c-0.8,1.3-1.9,1.5-3.4,0.8c-1-0.5-1.3-1.5-0.8-3.1c1-2,2-4,2.9-6.1
			c0.9-2.1,2-4.2,3.2-6.1c1-1.5,2-3.1,2.9-4.8c0.8-1.5,1.8-3,2.9-4.4c1.5-1.5,1.4-2.8-0.4-3.8h-0.4c-1.3-1-2.4-0.8-3.4,0.8
			c-2.2,3.1-4.3,6.3-6.1,9.5c-1.3,2-2.4,4.1-3.4,6.3c-1,2.2-2,4.3-3,6.3v0.4c-1,1.5-2.2,1.8-3.4,0.8c-1.5-0.5-1.8-1.5-0.8-3.1
			c1-2.3,2-4.5,3-6.7s2.2-4.3,3.4-6.3c1-1.8,2-3.5,3-5.2s2-3.2,3-4.8c1.3-1.5,1.1-2.8-0.4-3.8h-0.4c-1.3-1-2.4-0.8-3.4,0.8
			c-1.3,1.5-2.4,3.1-3.4,4.8c-1,1.7-2,3.5-3,5.5c-9.1,15.9-15.3,33.4-18.3,51.5c-0.5,4.1-1,8.1-1.3,12s-0.6,7.9-0.6,12v5.7h26v-5.3
			c0-11.1,1.3-22.1,4-32.8s6.9-21,12.4-30.5c1-1.3,1.9-2.7,2.7-4.2c0.7-1.5,1.6-2.9,2.7-4.2C395.1,117.1,394.8,115.8,393.3,115z"/>
		<path id="_路径_22" class="st4" d="M1121.6,105.5v5.3c0.1,22.2-5.7,44.1-16.8,63.3c-1.8,3.1-3.6,5.9-5.3,8.4
			c-0.9,1-0.8,2.5,0.2,3.4c0.2,0.2,0.4,0.3,0.6,0.4c1.3,0.8,3,0.5,3.8-0.8c1-1.5,1.9-3,2.7-4.4s1.7-2.9,2.7-4.4
			c1.2-1.9,2.3-3.9,3.2-5.9c0.9-1.9,1.8-3.9,2.9-5.9v-0.4c1-1.5,2.2-1.8,3.4-0.8c1.5,0.5,1.8,1.5,0.8,3.1c-0.8,2.1-1.7,4.1-2.7,6.1
			s-2.2,4.1-3.4,6.1c-1,1.5-2,3.1-2.9,4.8c-0.8,1.5-1.8,3-2.9,4.4c-0.9,1-0.8,2.5,0.2,3.4c0.2,0.2,0.4,0.3,0.6,0.4
			c1.3,1,2.4,0.8,3.4-0.8c2.2-3.1,4.2-6.3,6.1-9.5c1.3-2,2.4-4.1,3.4-6.3s2-4.3,3.1-6.3v-0.4c1-1.5,2.2-1.8,3.4-0.8
			c1.3,0.5,1.7,1.5,1.2,3.1c-1.9,4.5-4.2,8.9-6.9,13c-1,1.8-2,3.5-2.9,5.2s-2,3.3-3.2,4.8c-0.8,1.8-0.5,3.1,0.8,3.8
			c1.3,1,2.4,0.8,3.4-0.8c2.4-3.3,4.5-6.7,6.5-10.3c4.5-8,8.4-16.4,11.6-25s5.4-17.5,6.7-26.5c0.8-4,1.3-8,1.5-12
			c0.3-3.9,0.4-7.9,0.4-12v-5.7L1121.6,105.5L1121.6,105.5z"/>
		<path id="_路径_23" class="st4" d="M1070.1,110.9c0.1,22.2-5.7,44.1-16.8,63.3c-1.8,3.1-3.6,5.9-5.3,8.4c-0.9,1-0.8,2.5,0.2,3.4
			c0.2,0.2,0.4,0.3,0.6,0.4c1.3,0.8,3,0.5,3.8-0.8c1-1.5,1.9-3,2.7-4.4s1.7-2.9,2.7-4.4c1.2-1.9,2.3-3.9,3.2-5.9
			c0.9-1.9,1.8-3.9,2.9-5.9v-0.4c1-1.5,2.2-1.8,3.4-0.8c1.5,0.5,1.8,1.5,0.8,3.1c-0.8,2.1-1.7,4.1-2.7,6.1s-2.2,4.1-3.4,6.1
			c-1,1.5-2,3.1-2.9,4.8c-0.8,1.5-1.8,3-2.9,4.4c-0.9,1-0.8,2.5,0.2,3.4c0.2,0.2,0.4,0.3,0.6,0.4c1.3,1,2.4,0.8,3.4-0.8
			c2.2-3.1,4.2-6.3,6.1-9.5c1.3-2,2.4-4.1,3.4-6.3s2-4.3,3.1-6.3v-0.4c1-1.5,2.2-1.8,3.4-0.8c1.3,0.5,1.7,1.5,1.2,3.1
			c-1.9,4.5-4.2,8.9-6.9,13c-1,1.8-2,3.5-2.9,5.2s-2,3.3-3.2,4.8c-0.8,1.8-0.5,3.1,0.8,3.8c1.3,1,2.4,0.8,3.4-0.8
			c2.4-3.3,4.5-6.7,6.5-10.3c4.5-8,8.4-16.4,11.6-25s5.4-17.5,6.7-26.5c0.8-4,1.3-8,1.5-12c0.3-3.9,0.4-7.9,0.4-12v-5.7h-25.6
			L1070.1,110.9L1070.1,110.9z"/>
		<polygon id="_路径_24" class="st4" points="560,179.5 534.4,179.5 534.4,231.1 560,231.1 585.6,231.1 585.6,205.5 560,205.5 		
			"/>
		<polyline id="_路径_25" class="st4" points="585.6,154 560,154 560,179.5 585.6,179.5 585.6,205.5 611.5,205.5 611.5,179.5 
			611.5,154 		"/>
		<polygon id="_路径_26" class="st4" points="497.8,333 516.1,351.3 534.4,333 516.1,315 		"/>
		<path id="_路径_27" class="st4" d="M523.8,303.2v-25.6h-26v-59.9c-12.6,5.4-37.8,11.4-51.1,13.4v25.8c4.3-0.5,20.9-3.6,25.2-4.4
			v25.2h-25.2v25.6h25.2v0.4c-5.6,9.3-12.6,17.8-20.6,25.2c-1.5,1.2-3,2.3-4.6,3.4l17.1,18c1.7-1.1,3.3-2.4,4.8-3.7
			c1.1-1.1,2.2-2.1,3.3-3.2v30.3h26v-70.4L523.8,303.2L523.8,303.2z"/>
		<polygon id="_路径_28" class="st4" points="534.4,281.4 560,281.4 560,307.4 534.4,307.4 534.4,333 560,333 560,358.5 
			534.4,358.5 534.4,384.5 611.5,384.5 611.5,358.5 585.6,358.5 585.6,333 611.5,333 611.5,307.4 585.6,307.4 585.6,281.4 
			611.5,281.4 611.5,255.9 534.4,255.9 		"/>
		<path id="_路径_29" class="st4" d="M690.8,294.8c-0.1,16.6-3.5,33.1-9.8,48.5c-6.2,14.3-26.1,36.7-26.1,36.7l23.7,12.2
			c14.3-13.5,26-38.6,26-38.6c4.6-11.2,8-22.8,9.9-34.7c1.3-7.9,1.9-16,1.9-24V193.7h-25.6L690.8,294.8L690.8,294.8z"/>
		<polygon id="_路径_30" class="st4" points="771.8,149.8 753.4,131.5 735.5,149.8 753.4,167.7 		"/>
		<polygon id="_路径_31" class="st4" points="793.5,168.1 716.4,168.1 716.4,193.7 761.8,193.7 793.5,193.7 		"/>
		<polygon id="_路径_32" class="st4" points="800.8,308.9 760.7,308.9 724,308.9 724,334.9 750,334.9 750,374.2 729.4,394.4 
			747.7,412.7 775.6,384.9 775.6,334.9 800.8,334.9 800.8,353.6 826.7,353.6 826.7,308.9 825.6,308.9 		"/>
		<polygon id="_路径_33" class="st4" points="761.8,193.7 743.9,212 764.5,232.6 742.4,254.3 760.7,272.7 800.8,232.6 		"/>
		<polygon id="_路径_34" class="st4" points="760.7,272.7 742.7,290.6 760.7,308.9 779,290.6 		"/>
		<polygon id="_路径_35" class="st4" points="920.6,240.6 946.1,240.6 946.1,215 920.6,215 920.6,189.5 946.1,189.5 946.1,215 
			971.7,215 971.7,163.5 958.3,163.5 946.1,163.5 920.6,163.5 920.6,189.1 895,189.1 895,240.6 908.7,240.6 		"/>
		<polygon id="_路径_36" class="st4" points="904.1,292.5 958.9,292.5 958.9,345.6 984.9,345.6 984.9,292.5 984.9,266.6 
			904.1,266.6 		"/>
		<rect id="_路径_37" x="878.5" y="292.5" class="st4" width="25.6" height="53"/>
		<path id="_路径_38" class="st4" d="M931.2,331.1c-5.9,10.3-25.8,34.3-34,42.3l16.7,18.3c2.6-2.4,17.9-19.8,20.4-22.4l17.9,17.9
			l17.6-17.6l-20.6-20.2L931.2,331.1z"/>
	</g>
</g>
<rect class="st5" width="1500" height="500"/>
</svg>
