<?xml version="1.0" encoding="utf-8"?>
<!-- Generator: Adobe Illustrator 21.0.0, SVG Export Plug-In . SVG Version: 6.00 Build 0)  -->
<svg version="1.1" id="图层_1" xmlns="http://www.w3.org/2000/svg" xmlns:xlink="http://www.w3.org/1999/xlink" x="0px" y="0px"
	 viewBox="0 0 1500 800" style="enable-background:new 0 0 1500 800;" xml:space="preserve">
<style type="text/css">
	.st0{enable-background:new    ;}
	.st1{fill:#336733;}
	.st2{fill:#FFFFFF;}
</style>
<title>final plan 13</title>
<g class="st0">
	<path class="st1" d="M270.6,322.4h-27.2v-6c0-4.3,0.2-8.5,0.6-12.6c0.4-4.1,0.9-8.3,1.4-12.6c3.2-19.2,9.6-37.2,19.2-54
		c1.1-2.1,2.1-4.1,3.2-5.8c1.1-1.7,2.3-3.4,3.6-5c1.1-1.6,2.3-1.9,3.6-0.8h0.4c1.6,1.1,1.7,2.4,0.4,4c-1.1,1.6-2.1,3.3-3.2,5
		c-1.1,1.7-2.1,3.5-3.2,5.4c-1.3,2.1-2.5,4.3-3.6,6.6c-1.1,2.3-2.1,4.6-3.2,7c-1.1,1.6-0.8,2.7,0.8,3.2c1.3,1.1,2.5,0.8,3.6-0.8
		v-0.4c1.1-2.1,2.1-4.3,3.2-6.6c1.1-2.3,2.3-4.5,3.6-6.6c2.1-3.7,4.3-7.1,6.4-10c1.1-1.6,2.3-1.9,3.6-0.8h0.4c1.9,1.1,2,2.4,0.4,4
		c-1.1,1.3-2.1,2.9-3,4.6c-0.9,1.7-1.9,3.4-3,5c-1.3,2.1-2.5,4.3-3.4,6.4c-0.9,2.1-1.9,4.3-3,6.4c-0.5,1.6-0.3,2.7,0.8,3.2
		c1.6,0.8,2.8,0.5,3.6-0.8V260c1.1-2.1,2.1-4.2,3.2-6.2c1.1-2,2.1-4.1,3.2-6.2c1.1-1.6,2.1-3.1,3-4.6c0.9-1.5,1.9-3,3-4.6
		c1.1-1.6,2.3-1.9,3.6-0.8c1.6,0.8,1.9,2.1,0.8,4c-1.1,1.3-2,2.8-2.8,4.4c-0.8,1.6-1.7,3.1-2.8,4.4c-5.9,10.1-10.2,20.8-13,32
		c-2.8,11.2-4.2,22.7-4.2,34.4V322.4z M324.6,322.4h-27.2v-6c0-4.3,0.2-8.5,0.6-12.6c0.4-4.1,0.9-8.3,1.4-12.6
		c3.2-19.2,9.6-37.2,19.2-54c1.1-2.1,2.1-4.1,3.2-5.8c1.1-1.7,2.3-3.4,3.6-5c1.1-1.6,2.3-1.9,3.6-0.8h0.4c1.6,1.1,1.7,2.4,0.4,4
		c-1.1,1.6-2.1,3.3-3.2,5c-1.1,1.7-2.1,3.5-3.2,5.4c-1.3,2.1-2.5,4.3-3.6,6.6c-1.1,2.3-2.1,4.6-3.2,7c-1.1,1.6-0.8,2.7,0.8,3.2
		c1.3,1.1,2.5,0.8,3.6-0.8v-0.4c1.1-2.1,2.1-4.3,3.2-6.6c1.1-2.3,2.3-4.5,3.6-6.6c2.1-3.7,4.3-7.1,6.4-10c1.1-1.6,2.3-1.9,3.6-0.8
		h0.4c1.9,1.1,2,2.4,0.4,4c-1.1,1.3-2.1,2.9-3,4.6c-0.9,1.7-1.9,3.4-3,5c-1.3,2.1-2.5,4.3-3.4,6.4c-0.9,2.1-1.9,4.3-3,6.4
		c-0.5,1.6-0.3,2.7,0.8,3.2c1.6,0.8,2.8,0.5,3.6-0.8V260c1.1-2.1,2.1-4.2,3-6.2c0.9-2,2.1-4.1,3.4-6.2c1.1-1.6,2.1-3.1,3-4.6
		c0.9-1.5,1.9-3,3-4.6c1.1-1.6,2.3-1.9,3.6-0.8c1.6,0.8,1.9,2.1,0.8,4c-1.1,1.3-2,2.8-2.8,4.4c-0.8,1.6-1.7,3.1-2.8,4.4
		c-5.9,10.1-10.2,20.8-13,32c-2.8,11.2-4.2,22.7-4.2,34.4V322.4z"/>
	<path class="st1" d="M520.2,482.4h-26.8v-63.6l-30,30c-0.5,0.5-1.2,0.8-2,0.8c-0.8,0-1.5-0.3-2-0.8c-0.5-0.5-0.8-1.1-0.8-1.8
		c0-0.7,0.3-1.3,0.8-1.8l15.6-15.6c0.5-0.5,0.8-1.1,0.8-1.8c0-0.7-0.3-1.3-0.8-1.8c-0.5-0.5-1.2-0.8-2-0.8s-1.5,0.3-2,0.8
		l-15.2,15.2c-0.5,0.5-1.2,0.8-2,0.8s-1.5-0.3-2-0.8c-0.5-0.5-0.8-1.1-0.8-1.8c0-0.7,0.3-1.3,0.8-1.8l15.6-15.6
		c0.3-0.3,0.4-0.8,0.4-1.6c0-0.8-0.3-1.5-0.8-2c-0.3-0.5-0.8-0.8-1.6-0.8c-0.8,0-1.5,0.3-2,0.8l-15.2,15.2c-0.5,0.5-1.1,0.8-1.8,0.8
		c-0.7,0-1.4-0.3-2.2-0.8c-0.3-0.5-0.5-1.1-0.6-1.8c-0.1-0.7,0.1-1.3,0.6-1.8l56.8-56.8l-21.6-21.6l19.2-18.8l21.2,21.6l19.2,18.8
		L520.2,392V482.4z M479.4,313.6l19.2-18.8l18.8,18.8l-18.8,19.2L479.4,313.6z M520.2,419.2l19.2-18.8l19.2,18.8l-19.2,19.2
		L520.2,419.2z M638.6,468.6c0.3,0.7,0.3,1.3,0,1.8v0.4c-0.3,0.8-0.7,1.3-1.4,1.6c-0.7,0.3-1.4,0.3-2.2,0c-3.7-1.6-7.6-3.1-11.6-4.4
		c-4.8-1.6-9.9-3.1-15.2-4.4c-0.5,0-1.1,0.1-1.6,0.4c-0.5,0.3-0.9,0.8-1.2,1.6c-0.3,0.5-0.2,1.1,0.2,1.8c0.4,0.7,0.9,1.1,1.4,1.4
		h0.4c4.8,1.1,9.6,2.4,14.4,4c3.7,1.3,7.5,2.7,11.2,4c0.5,0.3,1,0.7,1.4,1.4c0.4,0.7,0.5,1.4,0.2,2.2c-0.5,0.8-1.1,1.3-1.8,1.6
		c-0.7,0.3-1.4,0.3-2.2,0c-3.5-1.3-6.9-2.7-10.4-4c-4.8-1.6-9.6-2.8-14.4-3.6c-0.5-0.3-1.1-0.3-1.6,0c-0.5,0.3-0.9,0.8-1.2,1.6
		c-0.3,0.5-0.2,1.1,0.2,1.8c0.4,0.7,0.9,1.1,1.4,1.4h0.4c4.5,1.1,9.1,2.3,13.6,3.6c3.5,1.3,6.8,2.7,10,4c0.8,0.3,1.3,0.7,1.6,1.4
		c0.3,0.7,0.3,1.4,0,2.2c-0.3,0.8-0.8,1.3-1.6,1.6c-0.8,0.3-1.5,0.3-2,0c-3.2-1.3-6.5-2.5-10-3.6c-15.5-4.8-31.2-7.1-47.2-6.8
		c-3.2,0-6.5,0-10,0v-19.2v-7.6v-81.2h27.2v82c13.1,0.8,26,3.1,38.8,6.8c4,1.6,7.9,3.2,11.6,4.8
		C637.8,467.5,638.3,467.9,638.6,468.6z"/>
	<path class="st1" d="M658.2,423.2c-0.5-0.5-0.7-1.2-0.6-2c0.1-0.8,0.5-1.5,1-2c2.9-1.9,5.7-4,8.4-6.4c16-14.1,28-31.2,36-51.2h27.2
		v107.6H703V414c-5.6,6.9-11.7,13.3-18.4,19.2c-3.2,2.7-6.5,5.3-10,8c-0.5,0.3-1.2,0.4-2,0.4c-0.8,0-1.5-0.3-2-0.8v-0.4
		c-0.5-0.5-0.7-1.2-0.6-2c0.1-0.8,0.6-1.5,1.4-2c3.2-2.4,6.3-4.9,9.2-7.6c4-3.2,7.7-6.8,11.2-10.8c0.5-0.3,0.8-0.7,0.8-1.4
		c0-0.7-0.1-1.3-0.4-1.8c-0.5-0.5-1.1-0.8-1.8-0.8c-0.7,0-1.3,0.1-1.8,0.4c0,0.3-0.1,0.4-0.4,0.4c-3.5,3.5-7.1,6.9-10.8,10.4
		c-2.9,2.4-6,4.8-9.2,7.2c-0.5,0.5-1.1,0.7-1.8,0.6c-0.7-0.1-1.3-0.5-1.8-1h-0.4c-0.3-0.8-0.3-1.5-0.2-2.2c0.1-0.7,0.5-1.3,1-1.8
		c2.9-2.4,5.9-4.8,8.8-7.2c3.7-3.2,7.2-6.5,10.4-10c0.5-0.5,0.8-1.1,0.8-1.8c0-0.7-0.3-1.1-0.8-1.4c-0.3-0.5-0.7-0.9-1.4-1
		c-0.7-0.1-1.3,0.1-1.8,0.6h-0.4c-3.2,3.5-6.5,6.8-10,10c-2.7,2.1-5.5,4.4-8.4,6.8c-0.8,0.3-1.5,0.4-2.2,0.4c-0.7,0-1.3-0.3-1.8-0.8
		V423.2z M731,447.6c-0.3-0.8-0.2-1.5,0.2-2.2c0.4-0.7,0.9-1.1,1.4-1.4c3.2-1.3,6.4-2.8,9.6-4.4c8.3-4,16-8.8,23.2-14.4l-22-22
		l18.8-19.2l22.4,22.4c7.2-8.3,13.2-17.2,18-26.8l22.4,14.8c-5.9,11.2-12.9,21.6-21.2,31.2l19.6,19.6L804.2,464l-19.6-19.6
		c-9.6,7.5-19.9,13.9-30.8,19.2c-3.7,1.9-7.6,3.6-11.6,5.2c-0.5,0.3-1.1,0.3-1.8,0c-0.7-0.3-1.1-0.7-1.4-1.2l-0.4-0.4
		c-0.3-0.5-0.2-1.2,0.2-2c0.4-0.8,0.9-1.3,1.4-1.6c3.7-1.3,7.5-2.9,11.2-4.8c4.8-2.4,9.3-4.9,13.6-7.6c0.5-0.3,0.9-0.7,1-1.4
		c0.1-0.7,0.1-1.3-0.2-1.8c-0.3-0.5-0.7-0.9-1.4-1.2c-0.7-0.3-1.3-0.3-1.8,0h-0.4v0.4c-4.3,2.4-8.5,4.8-12.8,7.2
		c-3.7,1.6-7.3,3.1-10.8,4.4c-0.8,0.5-1.5,0.7-2.2,0.4c-0.7-0.3-1.1-0.8-1.4-1.6c-0.3-0.8-0.3-1.5,0-2.2c0.3-0.7,0.8-1.1,1.6-1.4
		c3.5-1.6,6.8-3.2,10-4.8c4.5-2.1,8.8-4.4,12.8-6.8c0.5-0.5,0.9-1.1,1.2-1.6c0.3-0.5,0.1-1.1-0.4-1.6c-0.3-0.8-0.7-1.3-1.4-1.6
		c-0.7-0.3-1.3-0.1-1.8,0.4h-0.4c-3.7,2.4-7.7,4.7-12,6.8c-3.2,1.6-6.5,3.1-10,4.4c-0.5,0.3-1.1,0.3-1.8,0c-0.7-0.3-1.1-0.8-1.4-1.6
		H731z M802.2,357.2l-18.8,19.2l-19.2-19.2l19.2-18.8L802.2,357.2z"/>
	<path class="st1" d="M881.8,488.8H855V354.4h26.8v-26.8h26.8h26.8v26.8v26.4h-26.8v-26.4h-26.8V488.8z M923,452
		c0.5-0.5,0.7-1.1,0.6-1.8c-0.1-0.7-0.5-1.3-1-1.8c-0.5-0.3-1.1-0.4-1.8-0.4c-0.7,0-1.1,0.3-1.4,0.8c-3.2,3.5-6.3,7.1-9.2,10.8
		c-2.1,2.9-4.1,6-6,9.2c-0.3,0.5-0.8,0.9-1.6,1.2c-0.8,0.3-1.5,0.1-2-0.4h-0.4c-0.5-0.5-0.9-1.1-1-1.8c-0.1-0.7,0.1-1.3,0.6-1.8
		c1.9-3.2,3.9-6.4,6-9.6c2.9-3.7,6-7.5,9.2-11.2h0.4c0.3-0.5,0.3-1.1,0.2-1.8c-0.1-0.7-0.5-1.3-1-1.8c-0.5-0.3-1.1-0.4-1.6-0.4
		c-0.5,0-1.1,0.3-1.6,0.8c-3.2,3.7-6.3,7.6-9.2,11.6c-2.4,3.2-4.7,6.5-6.8,10c-0.3,0.5-0.8,0.9-1.6,1c-0.8,0.1-1.5,0.1-2-0.2h-0.4
		c-0.5-0.5-0.9-1.1-1-1.8c-0.1-0.7,0.1-1.3,0.6-1.8c2.1-3.7,4.4-7.2,6.8-10.4c6.1-8.3,13.1-16,20.8-23.2l-28.4-28l18.4-18.4
		l30.4,30.8l19.2,18.8c-15.7,9.1-28.9,20.8-39.6,35.2c-1.9,2.9-3.7,5.7-5.6,8.4c-0.3,0.8-0.8,1.3-1.6,1.4c-0.8,0.1-1.5-0.1-2-0.6
		H909c-0.5-0.3-0.9-0.8-1-1.6c-0.1-0.8,0.1-1.5,0.6-2c1.9-2.9,3.7-5.9,5.6-8.8C916.9,458.9,919.8,455.5,923,452z M993.4,429.2
		c0.3-0.5,0.5-1.1,0.6-1.6c0.1-0.5-0.1-1.1-0.6-1.6c-0.3-0.5-0.7-0.9-1.4-1c-0.7-0.1-1.3-0.1-1.8,0.2c0,0.3-0.1,0.4-0.4,0.4
		c-3.5,3.2-7.2,6.3-11.2,9.2c-2.9,2.1-6,4.3-9.2,6.4c-0.8,0.3-1.5,0.3-2.2,0.2c-0.7-0.1-1.1-0.5-1.4-1c-0.3,0-0.4-0.1-0.4-0.4
		c-0.3-0.5-0.3-1.1-0.2-1.8c0.1-0.7,0.5-1.3,1-1.8c3.2-1.9,6.3-3.9,9.2-6c3.7-2.9,7.3-5.9,10.8-8.8c0.5-0.5,0.9-1.1,1-1.8
		c0.1-0.7-0.1-1.3-0.6-1.8c-0.3-0.5-0.7-0.8-1.4-0.8c-0.7,0-1.3,0.1-1.8,0.4H983c-3.2,3.2-6.7,6.1-10.4,8.8c-2.9,2.1-5.9,4-8.8,5.6
		c-0.5,0.5-1.1,0.7-1.8,0.6c-0.7-0.1-1.3-0.5-1.8-1v-0.4c-0.5-0.5-0.7-1.2-0.4-2c0.3-0.8,0.7-1.3,1.2-1.6c2.9-1.9,5.7-3.7,8.4-5.6
		c14.4-10.7,26.1-23.9,35.2-39.6l19.2,19.2l28,28.4l-18,18l-26-25.6c-6.9,7.5-14.7,14.3-23.2,20.4c-3.2,2.4-6.5,4.8-10,7.2
		c-0.5,0.3-1.2,0.3-2,0.2c-0.8-0.1-1.3-0.5-1.6-1v-0.4c-0.5-0.5-0.7-1.1-0.6-1.8c0.1-0.7,0.6-1.3,1.4-1.8c3.2-2.1,6.4-4.3,9.6-6.4
		C985.7,435.6,989.7,432.4,993.4,429.2z"/>
	<path class="st1" d="M1147,312.4c-1.6-1.1-1.9-2.4-0.8-4c1.9-2.7,3.7-5.6,5.6-8.8c11.7-20.5,17.6-42.7,17.6-66.4v-5.6h26.8v6
		c0,4.3-0.1,8.5-0.4,12.6c-0.3,4.1-0.8,8.3-1.6,12.6c-1.3,9.6-3.7,18.9-7,27.8c-3.3,8.9-7.4,17.7-12.2,26.2
		c-1.9,3.5-4.1,7.1-6.8,10.8c-1.1,1.6-2.3,1.9-3.6,0.8c-1.3-0.8-1.6-2.1-0.8-4c1.3-1.6,2.5-3.3,3.4-5c0.9-1.7,1.9-3.5,3-5.4
		c2.9-4.5,5.3-9.1,7.2-13.6c0.5-1.6,0.1-2.7-1.2-3.2c-1.3-1.1-2.5-0.8-3.6,0.8v0.4c-1.1,2.1-2.1,4.3-3.2,6.6
		c-1.1,2.3-2.3,4.5-3.6,6.6c-2.1,3.7-4.3,7.1-6.4,10c-1.1,1.6-2.3,1.9-3.6,0.8c-1.6-1.1-1.9-2.4-0.8-4c1.1-1.3,2.1-2.9,3-4.6
		c0.9-1.7,1.9-3.4,3-5c1.3-2.1,2.5-4.3,3.6-6.4c1.1-2.1,2-4.3,2.8-6.4c1.1-1.6,0.8-2.7-0.8-3.2c-1.3-1.1-2.5-0.8-3.6,0.8v0.4
		c-1.1,2.1-2.1,4.2-3,6.2c-0.9,2-2.1,4.1-3.4,6.2c-1.1,1.6-2,3.1-2.8,4.6c-0.8,1.5-1.7,3-2.8,4.6
		C1149.9,312.9,1148.6,313.2,1147,312.4z M1223.4,227.6h26.8v6c0,4.3-0.1,8.5-0.4,12.6c-0.3,4.1-0.8,8.3-1.6,12.6
		c-1.3,9.6-3.7,18.9-7,27.8c-3.3,8.9-7.4,17.7-12.2,26.2c-1.9,3.5-4.1,7.1-6.8,10.8c-1.1,1.6-2.3,1.9-3.6,0.8
		c-1.3-0.8-1.6-2.1-0.8-4c1.3-1.6,2.5-3.3,3.4-5c0.9-1.7,1.9-3.5,3-5.4c2.9-4.5,5.3-9.1,7.2-13.6c0.5-1.6,0.1-2.7-1.2-3.2
		c-1.3-1.1-2.5-0.8-3.6,0.8v0.4c-1.1,2.1-2.1,4.3-3.2,6.6c-1.1,2.3-2.3,4.5-3.6,6.6c-2.1,3.7-4.3,7.1-6.4,10
		c-1.1,1.6-2.3,1.9-3.6,0.8c-1.6-1.1-1.9-2.4-0.8-4c1.1-1.3,2.1-2.9,3-4.6c0.9-1.7,1.9-3.4,3-5c1.3-2.1,2.5-4.3,3.6-6.4
		c1.1-2.1,2-4.3,2.8-6.4c1.1-1.6,0.8-2.7-0.8-3.2c-1.3-1.1-2.5-0.8-3.6,0.8v0.4c-1.1,2.1-2.1,4.2-3,6.2c-0.9,2-2.1,4.1-3.4,6.2
		c-1.1,1.6-2,3.1-2.8,4.6c-0.8,1.5-1.7,3-2.8,4.6c-1.1,1.3-2.4,1.6-4,0.8c-1.6-1.1-1.9-2.4-0.8-4c1.9-2.7,3.7-5.6,5.6-8.8
		c11.7-20.5,17.6-42.7,17.6-66.4V227.6z"/>
</g>
<title>final plan 13</title>
<g class="st0">
	<path class="st2" d="M258.6,308.4h-27.2v-6c0-4.3,0.2-8.5,0.6-12.6c0.4-4.1,0.9-8.3,1.4-12.6c3.2-19.2,9.6-37.2,19.2-54
		c1.1-2.1,2.1-4.1,3.2-5.8c1.1-1.7,2.3-3.4,3.6-5c1.1-1.6,2.3-1.9,3.6-0.8h0.4c1.6,1.1,1.7,2.4,0.4,4c-1.1,1.6-2.1,3.3-3.2,5
		c-1.1,1.7-2.1,3.5-3.2,5.4c-1.3,2.1-2.5,4.3-3.6,6.6c-1.1,2.3-2.1,4.6-3.2,7c-1.1,1.6-0.8,2.7,0.8,3.2c1.3,1.1,2.5,0.8,3.6-0.8
		v-0.4c1.1-2.1,2.1-4.3,3.2-6.6c1.1-2.3,2.3-4.5,3.6-6.6c2.1-3.7,4.3-7.1,6.4-10c1.1-1.6,2.3-1.9,3.6-0.8h0.4c1.9,1.1,2,2.4,0.4,4
		c-1.1,1.3-2.1,2.9-3,4.6c-0.9,1.7-1.9,3.4-3,5c-1.3,2.1-2.5,4.3-3.4,6.4c-0.9,2.1-1.9,4.3-3,6.4c-0.5,1.6-0.3,2.7,0.8,3.2
		c1.6,0.8,2.8,0.5,3.6-0.8V246c1.1-2.1,2.1-4.2,3.2-6.2c1.1-2,2.1-4.1,3.2-6.2c1.1-1.6,2.1-3.1,3-4.6c0.9-1.5,1.9-3,3-4.6
		c1.1-1.6,2.3-1.9,3.6-0.8c1.6,0.8,1.9,2.1,0.8,4c-1.1,1.3-2,2.8-2.8,4.4c-0.8,1.6-1.7,3.1-2.8,4.4c-5.9,10.1-10.2,20.8-13,32
		c-2.8,11.2-4.2,22.7-4.2,34.4V308.4z M312.6,308.4h-27.2v-6c0-4.3,0.2-8.5,0.6-12.6c0.4-4.1,0.9-8.3,1.4-12.6
		c3.2-19.2,9.6-37.2,19.2-54c1.1-2.1,2.1-4.1,3.2-5.8c1.1-1.7,2.3-3.4,3.6-5c1.1-1.6,2.3-1.9,3.6-0.8h0.4c1.6,1.1,1.7,2.4,0.4,4
		c-1.1,1.6-2.1,3.3-3.2,5c-1.1,1.7-2.1,3.5-3.2,5.4c-1.3,2.1-2.5,4.3-3.6,6.6c-1.1,2.3-2.1,4.6-3.2,7c-1.1,1.6-0.8,2.7,0.8,3.2
		c1.3,1.1,2.5,0.8,3.6-0.8v-0.4c1.1-2.1,2.1-4.3,3.2-6.6c1.1-2.3,2.3-4.5,3.6-6.6c2.1-3.7,4.3-7.1,6.4-10c1.1-1.6,2.3-1.9,3.6-0.8
		h0.4c1.9,1.1,2,2.4,0.4,4c-1.1,1.3-2.1,2.9-3,4.6c-0.9,1.7-1.9,3.4-3,5c-1.3,2.1-2.5,4.3-3.4,6.4c-0.9,2.1-1.9,4.3-3,6.4
		c-0.5,1.6-0.3,2.7,0.8,3.2c1.6,0.8,2.8,0.5,3.6-0.8V246c1.1-2.1,2.1-4.2,3-6.2c0.9-2,2.1-4.1,3.4-6.2c1.1-1.6,2.1-3.1,3-4.6
		c0.9-1.5,1.9-3,3-4.6c1.1-1.6,2.3-1.9,3.6-0.8c1.6,0.8,1.9,2.1,0.8,4c-1.1,1.3-2,2.8-2.8,4.4c-0.8,1.6-1.7,3.1-2.8,4.4
		c-5.9,10.1-10.2,20.8-13,32c-2.8,11.2-4.2,22.7-4.2,34.4V308.4z"/>
	<path class="st2" d="M508.2,468.4h-26.8v-63.6l-30,30c-0.5,0.5-1.2,0.8-2,0.8c-0.8,0-1.5-0.3-2-0.8c-0.5-0.5-0.8-1.1-0.8-1.8
		c0-0.7,0.3-1.3,0.8-1.8l15.6-15.6c0.5-0.5,0.8-1.1,0.8-1.8c0-0.7-0.3-1.3-0.8-1.8c-0.5-0.5-1.2-0.8-2-0.8s-1.5,0.3-2,0.8
		l-15.2,15.2c-0.5,0.5-1.2,0.8-2,0.8s-1.5-0.3-2-0.8c-0.5-0.5-0.8-1.1-0.8-1.8c0-0.7,0.3-1.3,0.8-1.8l15.6-15.6
		c0.3-0.3,0.4-0.8,0.4-1.6c0-0.8-0.3-1.5-0.8-2c-0.3-0.5-0.8-0.8-1.6-0.8c-0.8,0-1.5,0.3-2,0.8l-15.2,15.2c-0.5,0.5-1.1,0.8-1.8,0.8
		c-0.7,0-1.4-0.3-2.2-0.8c-0.3-0.5-0.5-1.1-0.6-1.8c-0.1-0.7,0.1-1.3,0.6-1.8l56.8-56.8l-21.6-21.6l19.2-18.8l21.2,21.6l19.2,18.8
		L508.2,378V468.4z M467.4,299.6l19.2-18.8l18.8,18.8l-18.8,19.2L467.4,299.6z M508.2,405.2l19.2-18.8l19.2,18.8l-19.2,19.2
		L508.2,405.2z M626.6,454.6c0.3,0.7,0.3,1.3,0,1.8v0.4c-0.3,0.8-0.7,1.3-1.4,1.6c-0.7,0.3-1.4,0.3-2.2,0c-3.7-1.6-7.6-3.1-11.6-4.4
		c-4.8-1.6-9.9-3.1-15.2-4.4c-0.5,0-1.1,0.1-1.6,0.4c-0.5,0.3-0.9,0.8-1.2,1.6c-0.3,0.5-0.2,1.1,0.2,1.8c0.4,0.7,0.9,1.1,1.4,1.4
		h0.4c4.8,1.1,9.6,2.4,14.4,4c3.7,1.3,7.5,2.7,11.2,4c0.5,0.3,1,0.7,1.4,1.4c0.4,0.7,0.5,1.4,0.2,2.2c-0.5,0.8-1.1,1.3-1.8,1.6
		c-0.7,0.3-1.4,0.3-2.2,0c-3.5-1.3-6.9-2.7-10.4-4c-4.8-1.6-9.6-2.8-14.4-3.6c-0.5-0.3-1.1-0.3-1.6,0c-0.5,0.3-0.9,0.8-1.2,1.6
		c-0.3,0.5-0.2,1.1,0.2,1.8c0.4,0.7,0.9,1.1,1.4,1.4h0.4c4.5,1.1,9.1,2.3,13.6,3.6c3.5,1.3,6.8,2.7,10,4c0.8,0.3,1.3,0.7,1.6,1.4
		c0.3,0.7,0.3,1.4,0,2.2c-0.3,0.8-0.8,1.3-1.6,1.6c-0.8,0.3-1.5,0.3-2,0c-3.2-1.3-6.5-2.5-10-3.6c-15.5-4.8-31.2-7.1-47.2-6.8
		c-3.2,0-6.5,0-10,0v-19.2v-7.6v-81.2h27.2v82c13.1,0.8,26,3.1,38.8,6.8c4,1.6,7.9,3.2,11.6,4.8
		C625.8,453.5,626.3,453.9,626.6,454.6z"/>
	<path class="st2" d="M646.2,409.2c-0.5-0.5-0.7-1.2-0.6-2c0.1-0.8,0.5-1.5,1-2c2.9-1.9,5.7-4,8.4-6.4c16-14.1,28-31.2,36-51.2h27.2
		v107.6H691V400c-5.6,6.9-11.7,13.3-18.4,19.2c-3.2,2.7-6.5,5.3-10,8c-0.5,0.3-1.2,0.4-2,0.4c-0.8,0-1.5-0.3-2-0.8v-0.4
		c-0.5-0.5-0.7-1.2-0.6-2c0.1-0.8,0.6-1.5,1.4-2c3.2-2.4,6.3-4.9,9.2-7.6c4-3.2,7.7-6.8,11.2-10.8c0.5-0.3,0.8-0.7,0.8-1.4
		c0-0.7-0.1-1.3-0.4-1.8c-0.5-0.5-1.1-0.8-1.8-0.8c-0.7,0-1.3,0.1-1.8,0.4c0,0.3-0.1,0.4-0.4,0.4c-3.5,3.5-7.1,6.9-10.8,10.4
		c-2.9,2.4-6,4.8-9.2,7.2c-0.5,0.5-1.1,0.7-1.8,0.6c-0.7-0.1-1.3-0.5-1.8-1h-0.4c-0.3-0.8-0.3-1.5-0.2-2.2c0.1-0.7,0.5-1.3,1-1.8
		c2.9-2.4,5.9-4.8,8.8-7.2c3.7-3.2,7.2-6.5,10.4-10c0.5-0.5,0.8-1.1,0.8-1.8c0-0.7-0.3-1.1-0.8-1.4c-0.3-0.5-0.7-0.9-1.4-1
		c-0.7-0.1-1.3,0.1-1.8,0.6h-0.4c-3.2,3.5-6.5,6.8-10,10c-2.7,2.1-5.5,4.4-8.4,6.8c-0.8,0.3-1.5,0.4-2.2,0.4c-0.7,0-1.3-0.3-1.8-0.8
		V409.2z M719,433.6c-0.3-0.8-0.2-1.5,0.2-2.2c0.4-0.7,0.9-1.1,1.4-1.4c3.2-1.3,6.4-2.8,9.6-4.4c8.3-4,16-8.8,23.2-14.4l-22-22
		l18.8-19.2l22.4,22.4c7.2-8.3,13.2-17.2,18-26.8l22.4,14.8c-5.9,11.2-12.9,21.6-21.2,31.2l19.6,19.6L792.2,450l-19.6-19.6
		c-9.6,7.5-19.9,13.9-30.8,19.2c-3.7,1.9-7.6,3.6-11.6,5.2c-0.5,0.3-1.1,0.3-1.8,0c-0.7-0.3-1.1-0.7-1.4-1.2l-0.4-0.4
		c-0.3-0.5-0.2-1.2,0.2-2c0.4-0.8,0.9-1.3,1.4-1.6c3.7-1.3,7.5-2.9,11.2-4.8c4.8-2.4,9.3-4.9,13.6-7.6c0.5-0.3,0.9-0.7,1-1.4
		c0.1-0.7,0.1-1.3-0.2-1.8c-0.3-0.5-0.7-0.9-1.4-1.2c-0.7-0.3-1.3-0.3-1.8,0h-0.4v0.4c-4.3,2.4-8.5,4.8-12.8,7.2
		c-3.7,1.6-7.3,3.1-10.8,4.4c-0.8,0.5-1.5,0.7-2.2,0.4c-0.7-0.3-1.1-0.8-1.4-1.6c-0.3-0.8-0.3-1.5,0-2.2c0.3-0.7,0.8-1.1,1.6-1.4
		c3.5-1.6,6.8-3.2,10-4.8c4.5-2.1,8.8-4.4,12.8-6.8c0.5-0.5,0.9-1.1,1.2-1.6c0.3-0.5,0.1-1.1-0.4-1.6c-0.3-0.8-0.7-1.3-1.4-1.6
		c-0.7-0.3-1.3-0.1-1.8,0.4h-0.4c-3.7,2.4-7.7,4.7-12,6.8c-3.2,1.6-6.5,3.1-10,4.4c-0.5,0.3-1.1,0.3-1.8,0c-0.7-0.3-1.1-0.8-1.4-1.6
		H719z M790.2,343.2l-18.8,19.2l-19.2-19.2l19.2-18.8L790.2,343.2z"/>
	<path class="st2" d="M869.8,474.8H843V340.4h26.8v-26.8h26.8h26.8v26.8v26.4h-26.8v-26.4h-26.8V474.8z M911,438
		c0.5-0.5,0.7-1.1,0.6-1.8c-0.1-0.7-0.5-1.3-1-1.8c-0.5-0.3-1.1-0.4-1.8-0.4c-0.7,0-1.1,0.3-1.4,0.8c-3.2,3.5-6.3,7.1-9.2,10.8
		c-2.1,2.9-4.1,6-6,9.2c-0.3,0.5-0.8,0.9-1.6,1.2c-0.8,0.3-1.5,0.1-2-0.4h-0.4c-0.5-0.5-0.9-1.1-1-1.8c-0.1-0.7,0.1-1.3,0.6-1.8
		c1.9-3.2,3.9-6.4,6-9.6c2.9-3.7,6-7.5,9.2-11.2h0.4c0.3-0.5,0.3-1.1,0.2-1.8c-0.1-0.7-0.5-1.3-1-1.8c-0.5-0.3-1.1-0.4-1.6-0.4
		c-0.5,0-1.1,0.3-1.6,0.8c-3.2,3.7-6.3,7.6-9.2,11.6c-2.4,3.2-4.7,6.5-6.8,10c-0.3,0.5-0.8,0.9-1.6,1c-0.8,0.1-1.5,0.1-2-0.2h-0.4
		c-0.5-0.5-0.9-1.1-1-1.8c-0.1-0.7,0.1-1.3,0.6-1.8c2.1-3.7,4.4-7.2,6.8-10.4c6.1-8.3,13.1-16,20.8-23.2l-28.4-28l18.4-18.4
		l30.4,30.8l19.2,18.8c-15.7,9.1-28.9,20.8-39.6,35.2c-1.9,2.9-3.7,5.7-5.6,8.4c-0.3,0.8-0.8,1.3-1.6,1.4c-0.8,0.1-1.5-0.1-2-0.6
		H897c-0.5-0.3-0.9-0.8-1-1.6c-0.1-0.8,0.1-1.5,0.6-2c1.9-2.9,3.7-5.9,5.6-8.8C904.9,444.9,907.8,441.5,911,438z M981.4,415.2
		c0.3-0.5,0.5-1.1,0.6-1.6c0.1-0.5-0.1-1.1-0.6-1.6c-0.3-0.5-0.7-0.9-1.4-1c-0.7-0.1-1.3-0.1-1.8,0.2c0,0.3-0.1,0.4-0.4,0.4
		c-3.5,3.2-7.2,6.3-11.2,9.2c-2.9,2.1-6,4.3-9.2,6.4c-0.8,0.3-1.5,0.3-2.2,0.2c-0.7-0.1-1.1-0.5-1.4-1c-0.3,0-0.4-0.1-0.4-0.4
		c-0.3-0.5-0.3-1.1-0.2-1.8c0.1-0.7,0.5-1.3,1-1.8c3.2-1.9,6.3-3.9,9.2-6c3.7-2.9,7.3-5.9,10.8-8.8c0.5-0.5,0.9-1.1,1-1.8
		c0.1-0.7-0.1-1.3-0.6-1.8c-0.3-0.5-0.7-0.8-1.4-0.8c-0.7,0-1.3,0.1-1.8,0.4H971c-3.2,3.2-6.7,6.1-10.4,8.8c-2.9,2.1-5.9,4-8.8,5.6
		c-0.5,0.5-1.1,0.7-1.8,0.6c-0.7-0.1-1.3-0.5-1.8-1v-0.4c-0.5-0.5-0.7-1.2-0.4-2c0.3-0.8,0.7-1.3,1.2-1.6c2.9-1.9,5.7-3.7,8.4-5.6
		c14.4-10.7,26.1-23.9,35.2-39.6l19.2,19.2l28,28.4l-18,18l-26-25.6c-6.9,7.5-14.7,14.3-23.2,20.4c-3.2,2.4-6.5,4.8-10,7.2
		c-0.5,0.3-1.2,0.3-2,0.2c-0.8-0.1-1.3-0.5-1.6-1v-0.4c-0.5-0.5-0.7-1.1-0.6-1.8c0.1-0.7,0.6-1.3,1.4-1.8c3.2-2.1,6.4-4.3,9.6-6.4
		C973.7,421.6,977.7,418.4,981.4,415.2z"/>
	<path class="st2" d="M1135,298.4c-1.6-1.1-1.9-2.4-0.8-4c1.9-2.7,3.7-5.6,5.6-8.8c11.7-20.5,17.6-42.7,17.6-66.4v-5.6h26.8v6
		c0,4.3-0.1,8.5-0.4,12.6c-0.3,4.1-0.8,8.3-1.6,12.6c-1.3,9.6-3.7,18.9-7,27.8c-3.3,8.9-7.4,17.7-12.2,26.2
		c-1.9,3.5-4.1,7.1-6.8,10.8c-1.1,1.6-2.3,1.9-3.6,0.8c-1.3-0.8-1.6-2.1-0.8-4c1.3-1.6,2.5-3.3,3.4-5c0.9-1.7,1.9-3.5,3-5.4
		c2.9-4.5,5.3-9.1,7.2-13.6c0.5-1.6,0.1-2.7-1.2-3.2c-1.3-1.1-2.5-0.8-3.6,0.8v0.4c-1.1,2.1-2.1,4.3-3.2,6.6
		c-1.1,2.3-2.3,4.5-3.6,6.6c-2.1,3.7-4.3,7.1-6.4,10c-1.1,1.6-2.3,1.9-3.6,0.8c-1.6-1.1-1.9-2.4-0.8-4c1.1-1.3,2.1-2.9,3-4.6
		c0.9-1.7,1.9-3.4,3-5c1.3-2.1,2.5-4.3,3.6-6.4c1.1-2.1,2-4.3,2.8-6.4c1.1-1.6,0.8-2.7-0.8-3.2c-1.3-1.1-2.5-0.8-3.6,0.8v0.4
		c-1.1,2.1-2.1,4.2-3,6.2c-0.9,2-2.1,4.1-3.4,6.2c-1.1,1.6-2,3.1-2.8,4.6c-0.8,1.5-1.7,3-2.8,4.6
		C1137.9,298.9,1136.6,299.2,1135,298.4z M1211.4,213.6h26.8v6c0,4.3-0.1,8.5-0.4,12.6c-0.3,4.1-0.8,8.3-1.6,12.6
		c-1.3,9.6-3.7,18.9-7,27.8c-3.3,8.9-7.4,17.7-12.2,26.2c-1.9,3.5-4.1,7.1-6.8,10.8c-1.1,1.6-2.3,1.9-3.6,0.8
		c-1.3-0.8-1.6-2.1-0.8-4c1.3-1.6,2.5-3.3,3.4-5c0.9-1.7,1.9-3.5,3-5.4c2.9-4.5,5.3-9.1,7.2-13.6c0.5-1.6,0.1-2.7-1.2-3.2
		c-1.3-1.1-2.5-0.8-3.6,0.8v0.4c-1.1,2.1-2.1,4.3-3.2,6.6c-1.1,2.3-2.3,4.5-3.6,6.6c-2.1,3.7-4.3,7.1-6.4,10
		c-1.1,1.6-2.3,1.9-3.6,0.8c-1.6-1.1-1.9-2.4-0.8-4c1.1-1.3,2.1-2.9,3-4.6c0.9-1.7,1.9-3.4,3-5c1.3-2.1,2.5-4.3,3.6-6.4
		c1.1-2.1,2-4.3,2.8-6.4c1.1-1.6,0.8-2.7-0.8-3.2c-1.3-1.1-2.5-0.8-3.6,0.8v0.4c-1.1,2.1-2.1,4.2-3,6.2c-0.9,2-2.1,4.1-3.4,6.2
		c-1.1,1.6-2,3.1-2.8,4.6c-0.8,1.5-1.7,3-2.8,4.6c-1.1,1.3-2.4,1.6-4,0.8c-1.6-1.1-1.9-2.4-0.8-4c1.9-2.7,3.7-5.6,5.6-8.8
		c11.7-20.5,17.6-42.7,17.6-66.4V213.6z"/>
</g>
</svg>
